<?xml version="1.0" encoding="UTF-8"?>
<!-- Generator: visioncortex VTracer 0.6.3 -->
<svg version="1.1" xmlns="http://www.w3.org/2000/svg" width="1280" height="1280">
<path d="M0 0 C422.4 0 844.8 0 1280 0 C1280 422.4 1280 844.8 1280 1280 C857.6 1280 435.2 1280 0 1280 C0 857.6 0 435.2 0 0 Z " fill="#F7F7F7" transform="translate(0,0)"/>
<path d="M0 0 C1.24 0 2.48 0.01 3.76 0.01 C11.55 0.13 18.13 0.83 25.47 3.5 C28.35 4.47 30.79 4.73 33.81 4.88 C38.56 5.19 40.01 6.95 43.25 10.44 C45.48 11.35 47.73 12.01 50.04 12.69 C53.17 13.75 55.59 15.51 58.25 17.44 C59.01 17.87 59.78 18.3 60.56 18.75 C69.09 24.11 78.85 31.19 83.25 40.44 C84.01 41.18 84.78 41.92 85.56 42.69 C88.3 45.49 90.13 48.24 92.11 51.59 C93.25 53.56 93.25 53.56 95.06 55.5 C96.86 58.43 96.44 61.09 96.25 64.44 C96.87 64.71 97.49 64.97 98.12 65.25 C100.25 66.44 100.25 66.44 102.25 69.44 C102.61 71.24 102.89 73.05 103.12 74.88 C103.79 79.29 104.78 83.24 106.31 87.44 C108.19 92.7 108.82 97.57 109.07 103.14 C109 105.4 109 105.4 110.25 106.44 C111.64 106.57 113.04 106.67 114.44 106.75 C119.04 107.2 121.43 108.81 125.25 111.44 C127.55 112.06 129.85 112.5 132.19 112.94 C134.77 113.56 136.42 114.52 138.25 116.44 C138.25 117.1 138.25 117.76 138.25 118.44 C139.48 118.44 139.48 118.44 140.73 118.45 C149.43 118.76 149.43 118.76 151.94 120.84 C153 122.5 153 122.5 154.25 125.44 C154.67 125.07 155.1 124.71 155.54 124.34 C156.78 123.27 158.02 122.21 159.26 121.15 C160.5 120.08 161.74 119 162.96 117.91 C169.44 112.18 175.84 107.41 184.3 105.18 C186.32 104.59 186.32 104.59 187.5 102.98 C190.3 100.51 193.81 100.17 197.38 99.44 C198.84 99.13 200.3 98.82 201.76 98.5 C202.5 98.34 203.25 98.18 204.02 98.01 C206.23 97.44 208.27 96.68 210.39 95.84 C216.71 93.68 223.2 93.91 229.81 93.94 C230.48 93.94 231.14 93.94 231.83 93.94 C241.16 93.97 249.29 94.83 258.01 98.19 C262.65 99.97 267.35 100.74 272.25 101.44 C272.25 102.1 272.25 102.76 272.25 103.44 C274.77 104.8 277.14 105.73 279.88 106.62 C285.29 108.62 289.66 112.01 294.25 115.44 C294.97 115.96 295.68 116.48 296.42 117.02 C298.39 118.46 300.32 119.94 302.25 121.44 C302.83 121.87 303.42 122.31 304.02 122.76 C310.01 127.49 315.82 134.14 318.25 141.44 C319.46 142.58 319.46 142.58 320.69 143.75 C323.45 146.65 324.1 148.67 325.25 152.44 C326.69 154.13 326.69 154.13 328.25 155.44 C330.79 159.25 331.39 162.9 332.37 167.33 C333.14 170.49 333.14 170.49 334.81 173.29 C336.64 177.29 336.73 180.66 336.81 185 C336.88 191.97 336.88 191.97 339.25 198.44 C342.83 200.33 346.03 201.38 349.94 202.44 C353.25 203.44 353.25 203.44 355.13 204.93 C357.61 206.7 359.45 207.05 362.44 207.5 C365.11 207.91 365.11 207.91 367.25 208.44 C369.22 212.38 368.84 217.15 368.25 221.44 C366.58 223.1 364.92 224.77 363.25 226.44 C362.89 229.32 362.89 229.32 362.88 232.5 C362.67 238.02 362.67 238.02 360.71 239.96 C358.93 240.88 357.09 241.66 355.25 242.44 C353.78 244.52 353.78 244.52 353.25 246.44 C350.09 245.07 349.26 244.45 347.25 241.44 C344.9 240.68 344.9 240.68 342.25 240.31 C337.39 239.51 337.39 239.51 335.25 238.44 C335.25 237.78 335.25 237.12 335.25 236.44 C334.26 236.77 333.27 237.1 332.25 237.44 C331.63 239.35 331.63 239.35 331.38 241.62 C330.48 246.41 328.5 248.79 325.25 252.44 C324.6 254.09 323.96 255.73 323.32 257.39 C321.29 261.27 318.27 264.47 315.45 267.8 C313.71 269.88 312.18 271.93 310.69 274.19 C306.44 280.27 300.88 284.27 294.25 287.44 C293.26 288.46 293.26 288.46 292.25 289.5 C290.25 291.44 290.25 291.44 287.19 292.44 C284.16 293.14 284.16 293.14 282.87 295.43 C280.8 297.99 279.58 298.08 276.38 298.5 C273.32 299 271.47 299.3 268.81 300.94 C264.64 303.38 259.98 303.69 255.25 304.44 C252.69 304.95 250.13 305.46 247.57 305.98 C235.44 307.64 222.76 306.8 210.69 305.12 C209.38 304.95 209.38 304.95 208.04 304.77 C203.55 304.08 199.91 303.35 196.25 300.44 C196.25 299.78 196.25 299.12 196.25 298.44 C195.59 298.4 194.92 298.36 194.24 298.32 C185.1 297.64 185.1 297.64 181.25 294.44 C181.25 293.78 181.25 293.12 181.25 292.44 C180.01 292.17 178.77 291.9 177.5 291.62 C171.5 289.65 167.52 285.5 163.11 281.21 C160.8 278.97 158.47 276.91 156 274.88 C152.16 271.56 149.16 267.74 146.08 263.73 C144.56 261.82 143.08 260.28 141.25 258.69 C139.25 256.44 139.25 256.44 138.94 253.12 C139.04 252.24 139.14 251.35 139.25 250.44 C138.59 250.44 137.93 250.44 137.25 250.44 C133.99 247.31 133.61 243.79 132.78 239.54 C132.13 236.97 130.93 235.47 129.25 233.44 C127.43 228.83 126.7 224.27 126.19 219.38 C126.11 218.63 126.03 217.88 125.94 217.11 C125.78 215.6 125.62 214.08 125.47 212.57 C125.27 210.67 125.05 208.78 124.83 206.89 C124.15 200.27 124.45 194.4 125.65 187.85 C126.53 182.88 127.04 177.86 127.59 172.85 C128.28 169.26 129.61 166.68 131.25 163.44 C131.61 160.93 131.61 160.93 131.44 158.56 C131.4 157.39 131.4 157.39 131.36 156.2 C131.32 155.62 131.29 155.04 131.25 154.44 C128.47 153.26 125.8 152.32 122.88 151.56 C119.57 150.54 117.09 149.18 114.16 147.39 C110.73 145.68 107.01 145.08 103.25 144.44 C102.63 145.39 102.01 146.34 101.38 147.31 C99.25 150.44 99.25 150.44 97.25 152.44 C96.72 154.54 96.72 154.54 96.38 156.88 C95.49 161.23 95.49 161.23 93.38 163.06 C92.67 163.52 91.97 163.97 91.25 164.44 C90.32 166.12 89.38 167.8 88.45 169.49 C86.41 172.81 83.79 175.55 81.12 178.38 C80.59 178.96 80.05 179.55 79.5 180.16 C78.13 181.63 76.69 183.04 75.25 184.44 C74.59 184.44 73.93 184.44 73.25 184.44 C72.92 185.43 72.59 186.42 72.25 187.44 C70.76 188.68 70.76 188.68 68.94 189.88 C66.72 191.37 65 192.69 63.12 194.62 C60.97 196.71 59.01 197.33 56.25 198.44 C55.67 199.1 55.1 199.76 54.5 200.44 C51.6 203.01 49.2 203.2 45.46 203.88 C43.01 204.35 43.01 204.35 40.5 206.44 C36.25 209.05 32.37 209.37 27.47 209.95 C24.21 210.44 21.37 211.38 18.25 212.44 C5.69 215.13 -7.07 213.91 -19.29 210.38 C-22.24 209.58 -24.78 209.16 -27.81 209 C-32.16 208.38 -33.77 207.24 -37.06 204.57 C-39.73 202.78 -42.61 202.79 -45.75 202.44 C-48.28 201.17 -50.19 200.03 -52.13 197.98 C-53.93 196.26 -55.66 195.31 -57.88 194.19 C-70.02 187.57 -82.06 177.03 -88.19 164.5 C-89.48 161.98 -90.7 160.18 -92.44 158 C-95.05 154.5 -95.2 151.81 -94.75 147.44 C-95.41 147.44 -96.07 147.44 -96.75 147.44 C-100.36 142.15 -101.37 137.67 -102.25 131.36 C-102.7 128.76 -103.31 126.62 -104.31 124.19 C-109.05 112.41 -107.78 97.17 -103.75 85.44 C-102.19 80.31 -101.15 75.27 -100.31 69.99 C-99.75 67.44 -99.75 67.44 -98.62 65.29 C-97.42 63.29 -97.42 63.29 -98.75 60.44 C-101.44 58.73 -103.89 58.16 -107 57.69 C-112.27 56.62 -115.75 53.9 -119.75 50.44 C-119.5 47.62 -119.5 47.62 -118.75 44.44 C-117.79 43.8 -117.79 43.8 -116.8 43.14 C-113.91 40.74 -113.84 38.59 -113.19 34.94 C-111.98 28.26 -111.98 28.26 -108.75 25.44 C-107.77 23.64 -107.77 23.64 -107.06 21.75 C-106.63 20.66 -106.2 19.56 -105.75 18.44 C-100 18.31 -100 18.31 -97.75 19.44 C-97.75 20.1 -97.75 20.76 -97.75 21.44 C-93.22 23.11 -88.76 24.06 -84.02 24.88 C-81.75 25.44 -81.75 25.44 -78.75 27.44 C-78.75 28.1 -78.75 28.76 -78.75 29.44 C-76.09 30.03 -76.09 30.03 -72.75 29.44 C-70.48 27.76 -68.5 25.94 -66.48 23.97 C-64.75 22.44 -64.75 22.44 -62.75 22.44 C-62.54 21.84 -62.34 21.24 -62.12 20.62 C-60.24 17.62 -57.92 16.92 -54.75 15.44 C-54.3 14.92 -53.84 14.41 -53.38 13.88 C-50.66 11.47 -47.52 12.02 -44.03 11.94 C-43.28 11.78 -42.52 11.61 -41.75 11.44 C-40.56 9.51 -40.56 9.51 -39.75 7.44 C-35.6 5.57 -31.16 4.88 -26.7 4.1 C-23.87 3.52 -23.87 3.52 -21.68 2.72 C-14.41 0.23 -7.64 -0.06 0 0 Z " fill="#010101" transform="translate(505.75,310.5625)"/>
<path d="M0 0 C1.07 0.01 1.07 0.01 2.16 0.02 C7.34 0.22 10.42 1.17 13.96 4.92 C15.84 7.67 17.15 9.68 17.06 13.06 C15.8 16.52 13.93 18.29 11.12 20.62 C10.13 20.62 9.14 20.62 8.12 20.62 C10.03 25.17 10.03 25.17 12.12 29.62 C13.07 40.12 13.07 40.12 10.31 44.5 C9.59 45.2 8.87 45.9 8.12 46.62 C7.65 47.59 7.18 48.56 6.69 49.56 C5.12 52.62 5.12 52.62 2.55 55.3 C-0.59 59 -0.5 62.25 -0.25 66.94 C-0.24 67.67 -0.22 68.39 -0.21 69.14 C-0.39 72.68 -0.39 72.68 1.12 75.62 C5.78 76.24 8.02 74.7 11.69 71.94 C13.08 70.91 13.08 70.91 14.5 69.86 C17.1 67.65 19 65.29 21.12 62.62 C22.55 62.01 22.55 62.01 24 61.38 C27.96 59.16 29.44 56.52 31.73 52.68 C33.12 50.62 33.12 50.62 36.12 48.62 C36.63 46.4 36.63 46.4 36.81 43.88 C37.53 39.78 38.29 37.93 41.69 35.5 C42.75 34.81 42.75 34.81 43.83 34.11 C49.13 30.67 54.26 26.94 56.5 20.94 C59.08 15.67 63.87 14.66 69.12 12.62 C72.04 11.34 72.99 10.81 74.94 8.19 C77.64 5.02 80.28 4.12 84.12 2.62 C84.78 1.97 85.44 1.3 86.12 0.62 C99.83 -0.89 99.83 -0.89 105.73 1.83 C108.74 4.37 110.57 7.01 112.12 10.62 C112.12 13.44 111.73 14.98 109.79 17.05 C105.66 20.62 105.66 20.62 103.12 20.62 C105.03 25.17 105.03 25.17 107.12 29.62 C108.18 40.55 108.18 40.55 106.04 44.75 C104.69 46.31 104.69 46.31 102.12 48.62 C100.82 50.81 100.82 50.81 101.38 54.38 C101.47 59.17 99.23 61.06 96.12 64.62 C94.96 68.77 94.66 70.67 96.56 74.56 C97.08 75.24 97.59 75.92 98.12 76.62 C104.12 73.41 109.91 69.95 115.61 66.24 C117.53 65.01 119.51 63.86 121.5 62.75 C124.64 60.21 126.01 57.7 127.84 54.14 C129.21 51.46 130.7 48.89 132.25 46.31 C132.73 45.51 133.2 44.71 133.7 43.89 C135.12 41.62 135.12 41.62 136.78 39.61 C138.36 37.28 138.48 35.91 138.56 33.12 C138.93 28.89 138.93 28.89 140.75 26.44 C141.53 25.84 142.32 25.24 143.12 24.62 C143.83 23.85 143.83 23.85 144.56 23.06 C147.27 20.25 149.08 18.76 153.02 18.24 C155.75 18.25 158.41 18.36 161.12 18.62 C163.52 22.82 165 25.79 164.12 30.62 C162.69 32.71 161.13 34.63 159.53 36.59 C157.45 39.61 157.28 42.01 157.12 45.62 C162.33 45.31 164.84 42.37 168.12 38.69 C168.66 38.1 169.2 37.52 169.75 36.91 C172.73 33.56 174.9 30.5 176.62 26.31 C179.38 19.83 185.27 17.06 191.12 13.62 C191.45 13.29 191.79 12.97 192.12 12.62 C195.9 12.01 199.36 11.91 203.12 12.62 C205.99 14.81 207.13 17.2 208.12 20.62 C208.49 24.34 208.43 27.91 208.12 31.62 C207.13 31.96 206.14 32.28 205.12 32.62 C204.54 34.4 204.54 34.4 204.31 36.56 C203.39 41.62 201.16 45.17 198.27 49.36 C196.89 51.55 196.89 51.55 197.45 53.92 C197.78 54.76 197.78 54.76 198.12 55.62 C201.38 54.23 203.2 52.66 205.44 49.94 C213.9 39.95 213.9 39.95 218.44 37.25 C220.54 35.22 220.42 34.22 220.81 31.38 C221.76 26.06 224.56 24.06 228.84 21.04 C235.78 16.76 235.78 16.76 240.12 17.62 C244.73 22.89 246.09 28.99 246.56 35.81 C246.12 39.62 246.12 39.62 243.69 42 C240.76 45 240.81 45.64 240.62 49.62 C240.43 53.59 240.35 54.35 237.69 57.56 C236.84 58.24 236 58.92 235.12 59.62 C234.46 60.62 233.81 61.61 233.12 62.62 C231.13 63.64 229.13 64.64 227.12 65.62 C224.99 69.9 226.03 75.12 227.12 79.62 C227.79 79.62 228.44 79.62 229.12 79.62 C229.12 80.28 229.12 80.94 229.12 81.62 C231.43 81.62 233.75 81.62 236.12 81.62 C237.18 79.59 238.14 77.59 238.95 75.44 C241.11 69.79 243.51 66.18 249.12 63.62 C252.31 62.94 252.31 62.94 255.12 63.62 C257.5 66.63 257.5 66.63 259.12 69.62 C256.49 74.49 253.19 77.91 248.94 81.44 C244.4 85.26 241.55 88.25 239.2 93.68 C235.97 99.52 229.16 103.45 223.79 107.17 C221.91 108.82 221.18 110.38 220.12 112.62 C216.89 114.07 214.49 113.33 211.12 112.62 C209.93 112.65 208.73 112.67 207.5 112.69 C204.12 112.62 204.12 112.62 201.12 110.62 C198.16 106.22 196.29 101.97 197.12 96.62 C198.26 92.88 199.69 89.27 201.12 85.62 C201.61 84.31 202.1 83 202.59 81.68 C203.1 80.33 203.61 78.98 204.12 77.62 C204.36 76.98 204.6 76.33 204.84 75.66 C206.3 71.9 207.61 69.68 211.12 67.62 C210.8 66.31 210.46 64.99 210.12 63.62 C208.4 62.67 208.4 62.67 206.12 62.62 C203.48 64.85 203.48 64.85 201.12 67.62 C200.6 68.05 200.08 68.48 199.55 68.92 C197.53 71.34 197.43 73.59 196.94 76.69 C195.37 84.03 192.18 88.22 187.12 93.62 C185.54 95.4 183.96 97.17 182.38 98.94 C181.66 99.72 180.94 100.5 180.2 101.3 C178.04 103.62 178.04 103.62 176.2 106.42 C174.12 108.62 174.12 108.62 171.5 109 C161 107.6 161 107.6 158.12 104.62 C157.53 98.63 159.07 94.05 161.19 88.56 C161.5 87.73 161.81 86.91 162.14 86.05 C168.69 69.09 168.69 69.09 173.85 62.39 C175.4 60.68 175.4 60.68 174.81 58.38 C174.59 57.8 174.36 57.22 174.12 56.62 C172.1 58.56 170.7 60.26 169.12 62.62 C168.34 62.93 167.56 63.24 166.75 63.56 C163.48 64.89 162.18 65.72 160.12 68.62 C159.81 70.37 159.54 72.12 159.31 73.88 C158.5 79.22 156.86 81.67 153.12 85.46 C150.75 88.03 148.92 90.76 147 93.69 C146.33 94.71 145.66 95.72 144.97 96.77 C143.87 98.48 142.78 100.19 141.72 101.91 C139.77 104.95 138.55 106.47 135.12 107.75 C131.37 107.59 130.01 107.06 127.12 104.62 C121.75 98.37 120.09 90.44 118.12 82.62 C115.73 85.02 113.33 87.41 110.96 89.83 C110.29 90.5 109.62 91.18 108.94 91.88 C108.26 92.56 107.59 93.25 106.89 93.95 C105.12 95.62 105.12 95.62 103.12 96.62 C102.64 98.01 102.19 99.41 101.75 100.81 C99.38 106.5 95.33 108.12 89.9 110.53 C85.73 112.17 82.63 113 78.12 112.62 C75.54 110.78 74.32 108.54 73.12 105.62 C72.9 102.69 72.9 102.69 72.93 99.33 C72.94 97.52 72.94 97.52 72.95 95.68 C72.97 93.79 72.97 93.79 73 91.88 C73.01 90.61 73.02 89.34 73.03 88.03 C73.05 84.89 73.08 81.76 73.12 78.62 C72.47 78.29 71.81 77.97 71.12 77.62 C70.65 78.78 70.18 79.93 69.69 81.12 C67.87 84.85 65.79 86.93 62.56 89.5 C58.22 93.09 56.8 96.06 55.66 101.52 C55.12 103.62 55.12 103.62 53.12 105.62 C44.61 108.14 44.61 108.14 40.12 107.62 C36.67 105.32 36.59 104.34 35.12 100.62 C34.53 99.92 33.93 99.22 33.31 98.5 C28.23 91.82 25.6 83.57 23.12 75.62 C21.81 75.62 20.49 75.62 19.12 75.62 C19.11 76.44 19.1 77.26 19.08 78.11 C18.69 87.03 18.69 87.03 15.88 90 C14.97 90.54 14.06 91.07 13.12 91.62 C11.92 93.12 10.71 94.61 9.52 96.12 C7.98 97.78 6.38 98.93 4.5 100.19 C1.37 102.3 0.02 104.34 -1.88 107.62 C-5.26 111.25 -7.29 112.95 -12.31 113.12 C-16.72 112.88 -19.96 111.62 -23.88 109.62 C-24.87 109.13 -24.87 109.13 -25.88 108.62 C-25.89 108.03 -25.9 107.44 -25.92 106.84 C-25.99 104.16 -26.09 101.49 -26.19 98.81 C-26.22 97.42 -26.22 97.42 -26.26 96 C-26.29 95.11 -26.33 94.21 -26.36 93.29 C-26.4 92.06 -26.4 92.06 -26.44 90.8 C-26.96 88.2 -27.86 87.29 -29.88 85.62 C-30.37 86.33 -30.87 87.03 -31.38 87.75 C-35.18 93.05 -39.04 98.15 -43.43 102.97 C-45.07 104.77 -45.07 104.77 -46.88 107.62 C-53.41 108.17 -58.33 107.32 -63.88 103.62 C-64.5 100.8 -64.5 100.8 -64.88 97.38 C-65.28 93.73 -65.59 91.13 -67.41 87.92 C-69.58 83.05 -69.35 78.46 -69.31 73.19 C-69.33 72.18 -69.35 71.16 -69.37 70.12 C-69.37 63.61 -68.43 60.05 -64.88 54.62 C-64.25 52.06 -64.25 52.06 -64.06 49.62 C-62.92 43.06 -59.1 39.93 -53.85 36.18 C-53.18 35.71 -52.5 35.24 -51.81 34.75 C-47.92 31.95 -45.8 28.75 -43.29 24.73 C-40.22 20.17 -35.73 17.53 -31.19 14.62 C-27.67 12.39 -27.67 12.39 -25.5 8.88 C-23.88 6.62 -23.88 6.62 -21.44 6.01 C-19.52 5.72 -17.59 5.47 -15.66 5.28 C-12.73 4.82 -12.73 4.82 -10.52 2.61 C-7.08 0.03 -4.14 -0.06 0 0 Z " fill="#E52023" transform="translate(557.875,684.375)"/>
<path d="M0 0 C0.93 0.16 1.86 0.31 2.83 0.47 C8.51 1.54 12.63 3.14 17.5 6.25 C18.35 6.56 19.19 6.87 20.06 7.19 C23.38 8.63 25.82 10.87 28.5 13.25 C29.13 13.78 29.76 14.31 30.41 14.85 C35.2 18.9 39.77 23.18 43.5 28.25 C43.5 28.91 43.5 29.57 43.5 30.25 C44.1 30.46 44.7 30.66 45.31 30.88 C48.35 32.79 49.16 34.97 50.5 38.25 C50.5 39.24 50.5 40.23 50.5 41.25 C51.12 41.44 51.74 41.62 52.38 41.81 C55.01 43.6 55.29 45.16 56 48.18 C56.55 50.46 57.25 52.65 58 54.88 C58.26 55.64 58.51 56.41 58.77 57.2 C59.5 59.35 59.5 59.35 60.62 61.75 C64.31 72.27 63.1 85.66 60.5 96.25 C59.51 97.92 58.51 99.59 57.5 101.25 C56.91 103.85 56.57 106.41 56.22 109.04 C55.98 109.77 55.75 110.5 55.5 111.25 C54.51 111.71 54.51 111.71 53.5 112.18 C52.84 112.53 52.18 112.88 51.5 113.25 C51.41 114.1 51.32 114.96 51.23 115.84 C50.09 121.14 46.49 124.04 42.75 127.81 C42.03 128.55 41.32 129.3 40.58 130.06 C38.57 132.14 36.53 134.19 34.5 136.25 C33.75 137.03 33.75 137.03 32.98 137.83 C30.07 140.84 27.27 142.45 23.5 144.25 C23.06 144.74 22.62 145.23 22.16 145.74 C19.94 147.76 17.97 148.09 15.06 148.75 C11.02 149.66 11.02 149.66 7.53 151.78 C1.94 155.83 -7.1 154.43 -13.69 154.44 C-14.86 154.45 -16.02 154.46 -17.23 154.47 C-31.28 154.5 -43.56 151.92 -55.5 144.25 C-56.24 143.78 -56.97 143.31 -57.73 142.83 C-68.13 135.88 -77.3 127.51 -84.5 117.25 C-85.24 116.26 -85.99 115.27 -86.75 114.25 C-88.59 111.1 -89.65 108.15 -90.71 104.69 C-91.82 101.25 -93.23 97.94 -94.63 94.61 C-99.04 82.61 -97.68 66.08 -93.5 54.25 C-93.27 53.59 -93.05 52.93 -92.82 52.25 C-92.06 50.06 -91.29 47.87 -90.5 45.69 C-90.13 44.65 -90.13 44.65 -89.75 43.59 C-88.43 40.11 -87.19 37.78 -84.5 35.25 C-84.12 34.15 -84.12 34.15 -83.73 33.03 C-81.91 28.9 -78.96 26.05 -75.88 22.81 C-75.28 22.17 -74.69 21.53 -74.08 20.87 C-68.1 14.5 -62.28 9.26 -53.68 7.09 C-51.34 6.33 -51.34 6.33 -49.32 4.3 C-45.46 1.49 -41.76 0.85 -37.12 0 C-36.23 -0.17 -35.34 -0.33 -34.42 -0.51 C-22.51 -2.59 -11.84 -2.02 0 0 Z " fill="#F7F6F6" transform="translate(754.5,434.75)"/>
<path d="M0 0 C2.07 1.54 4.24 2.29 6.64 3.22 C20.11 10.3 32.49 23.91 37.64 38.22 C37.64 39.21 37.64 40.2 37.64 41.22 C38.28 41.46 38.92 41.71 39.57 41.96 C41.64 43.22 41.64 43.22 42.36 45.07 C42.53 46.23 42.53 46.23 42.7 47.41 C42.92 48.73 42.92 48.73 43.14 50.08 C43.31 51.11 43.47 52.15 43.64 53.22 C44.15 55.87 44.67 58.51 45.2 61.16 C45.45 62.42 45.7 63.69 45.96 65 C46.58 68.21 46.58 68.21 47.64 71.22 C48.02 76.73 47.34 80.58 45.43 85.72 C44.52 88.61 44.11 91.41 43.7 94.41 C42.96 99.32 41.65 102.2 38.64 106.22 C38.24 107.44 37.84 108.66 37.43 109.92 C35.64 114.86 32.6 118.08 28.95 121.78 C28.33 122.44 27.7 123.09 27.05 123.76 C23.29 127.65 19.47 131.43 15.29 134.87 C13.73 136.15 12.27 137.56 10.83 138.97 C7.01 141.67 3.57 142.49 -0.97 143.45 C-3.7 144.06 -3.7 144.06 -5.36 147.22 C-8 147.78 -10.44 148.15 -13.11 148.41 C-14.25 148.53 -14.25 148.53 -15.42 148.65 C-22.41 149.33 -29.34 149.47 -36.36 149.22 C-37.47 149.19 -38.58 149.16 -39.73 149.13 C-47.28 148.76 -53.42 147.14 -60.36 144.22 C-61.28 143.86 -62.21 143.5 -63.16 143.14 C-66.84 141.71 -70.06 140.42 -73.36 138.22 C-73.36 137.56 -73.36 136.9 -73.36 136.22 C-74.41 135.85 -74.41 135.85 -75.48 135.47 C-78.75 134.05 -81.5 132.35 -84.36 130.22 C-84.36 129.56 -84.36 128.9 -84.36 128.22 C-84.92 128.01 -85.47 127.81 -86.05 127.59 C-89.23 125.7 -91.06 123.1 -93.36 120.22 C-93.88 119.74 -94.39 119.27 -94.92 118.78 C-96.43 117.14 -97.35 115.54 -98.42 113.59 C-99.96 110.19 -99.96 110.19 -102.36 109.22 C-103.21 107.03 -103.83 104.8 -104.48 102.54 C-105.23 100.17 -105.23 100.17 -106.88 98.43 C-109.01 95.24 -109.19 91.94 -109.55 88.22 C-109.67 87.07 -109.67 87.07 -109.79 85.9 C-110.74 76.1 -110.41 66.64 -109.55 56.84 C-109.44 55.56 -109.44 55.56 -109.33 54.25 C-108.85 49.27 -107.92 45.61 -105.36 41.22 C-104.27 38.65 -103.37 36.25 -102.72 33.53 C-100.88 29.05 -98.03 26.21 -94.67 22.78 C-94.07 22.15 -93.47 21.52 -92.85 20.87 C-91.04 18.97 -89.2 17.09 -87.36 15.22 C-86.72 14.57 -86.09 13.92 -85.44 13.25 C-84.82 12.62 -84.2 12 -83.57 11.36 C-83.02 10.79 -82.47 10.23 -81.9 9.66 C-79.9 7.79 -77.75 6.51 -75.36 5.22 C-74.74 4.68 -74.12 4.15 -73.48 3.59 C-71.36 2.22 -71.36 2.22 -67.86 1.84 C-66.7 1.64 -65.55 1.43 -64.36 1.22 C-63.82 0.41 -63.27 -0.4 -62.71 -1.24 C-59.27 -4.96 -56.06 -4.79 -51.17 -5.09 C-50.28 -5.16 -49.39 -5.23 -48.48 -5.31 C-10.15 -8.08 -10.15 -8.08 0 0 Z " fill="#F7F6F6" transform="translate(539.359375,345.78125)"/>
<path d="M0 0 C1.02 0 2.05 0.01 3.11 0.01 C4.17 0.02 5.23 0.03 6.33 0.04 C7.41 0.04 8.49 0.04 9.6 0.05 C12.26 0.06 14.92 0.08 17.58 0.1 C18.98 2.9 18.83 5 18.58 8.1 C17.27 9.97 17.27 9.97 15.58 11.1 C14.59 11.1 13.6 11.1 12.58 11.1 C12.58 11.78 12.58 12.47 12.58 13.18 C12.58 16.82 12.58 20.46 12.58 24.1 C10.6 24.1 8.62 24.1 6.58 24.1 C6.65 24.77 6.72 25.45 6.79 26.14 C6.96 28.9 7.02 31.37 6.58 34.1 C4.61 35.48 2.61 36.81 0.58 38.1 C0.05 40.42 -0.05 42.6 -0.15 44.98 C-0.54 48.03 -2.06 49.25 -4.42 51.1 C-4.75 51.76 -5.08 52.42 -5.42 53.1 C-6.37 53.61 -7.32 54.13 -8.3 54.66 C-11.59 57.23 -11.8 57.6 -12.75 61.34 C-14.28 66.26 -16.56 69.06 -20.22 72.58 C-21.09 73.45 -21.09 73.45 -21.98 74.34 C-23.89 76.24 -25.81 78.12 -27.73 80 C-29.07 81.32 -30.4 82.65 -31.74 83.97 C-35.23 87.45 -38.75 90.9 -42.27 94.35 C-45.85 97.87 -49.41 101.41 -52.98 104.95 C-58.73 110.65 -64.5 116.34 -70.27 122.02 C-72.67 124.37 -75.06 126.72 -77.42 129.1 C-79.42 131.1 -79.42 131.1 -82.8 131.41 C-87.28 132.26 -87.91 133.42 -90.42 137.1 C-92.07 138.78 -93.73 140.45 -95.42 142.1 C-95.75 142.43 -96.08 142.76 -96.42 143.1 C-98.04 143.37 -99.67 143.61 -101.3 143.85 C-105.53 144.52 -105.53 144.52 -108.23 147.72 C-108.63 148.51 -109.02 149.29 -109.42 150.1 C-111.98 150.41 -111.98 150.41 -114.42 150.1 C-116.64 149.87 -116.64 149.87 -118.48 151.97 C-120.46 153.94 -120.46 153.94 -121.42 156.1 C-122.68 156.04 -123.94 155.97 -125.23 155.91 C-128.49 155.87 -128.49 155.87 -131.3 157.41 C-131.67 157.97 -132.04 158.52 -132.42 159.1 C-133.08 160.09 -133.74 161.08 -134.42 162.1 C-136.48 162.43 -136.48 162.43 -138.86 162.47 C-141.26 162.59 -141.26 162.59 -143.42 163.1 C-145.28 165.51 -145.28 165.51 -146.42 168.1 C-150.55 169.56 -154.88 169.22 -159.2 169.19 C-160.09 169.19 -160.99 169.19 -161.91 169.19 C-164.92 169.18 -167.92 169.17 -170.93 169.15 C-173.09 169.14 -175.24 169.14 -177.39 169.13 C-183.24 169.11 -189.1 169.09 -194.95 169.06 C-199.83 169.04 -204.71 169.02 -209.59 169 C-221.1 168.96 -232.62 168.91 -244.13 168.86 C-256.01 168.8 -267.9 168.76 -279.79 168.72 C-289.99 168.68 -300.19 168.64 -310.38 168.6 C-316.48 168.57 -322.57 168.54 -328.67 168.52 C-334.4 168.51 -340.13 168.48 -345.85 168.45 C-347.96 168.44 -350.07 168.43 -352.17 168.43 C-355.04 168.42 -357.91 168.4 -360.77 168.38 C-361.61 168.38 -362.46 168.39 -363.32 168.39 C-367.2 168.35 -369.12 168.3 -372.42 166.1 C-373.61 163.97 -373.61 163.97 -374.42 162.1 C-375.47 162.2 -376.53 162.3 -377.61 162.41 C-382.37 162.02 -383.31 160.55 -386.42 157.1 C-388.86 156.15 -390.92 156.06 -393.55 155.85 C-394.97 155.48 -394.97 155.48 -396.42 155.1 C-397.8 152.54 -397.8 152.54 -398.42 150.1 C-399.31 150.09 -399.31 150.09 -400.21 150.09 C-406.72 149.77 -406.72 149.77 -408.89 147.7 C-409.27 147.15 -409.65 146.6 -410.05 146.04 C-410.83 145.07 -411.61 144.1 -412.42 143.1 C-414.75 143.06 -417.09 143.06 -419.42 143.1 C-422.05 140.79 -422.05 140.79 -424.42 138.1 C-425.29 137.58 -426.15 137.07 -427.05 136.54 C-429.42 135.1 -429.42 135.1 -430.73 133.04 C-432.98 130.46 -435.2 130.45 -438.44 129.78 C-441.17 128.84 -442.5 127.02 -444.15 124.73 C-445.54 122.94 -447.04 121.65 -448.8 120.22 C-451.35 118.13 -453.44 115.96 -455.53 113.4 C-458.2 110.29 -460.97 107.78 -464.23 105.29 C-471.53 99.42 -478.31 93.79 -479.71 84.12 C-480.78 73.12 -480.08 62 -478.42 51.1 C-477.76 51.78 -477.1 52.46 -476.42 53.16 C-473.66 55.94 -470.7 58.46 -467.68 60.96 C-465.75 62.79 -464.07 64.63 -462.35 66.64 C-458.1 71.55 -453.53 76.14 -448.93 80.72 C-447.49 82.16 -446.04 83.61 -444.6 85.05 C-439.9 89.76 -435.14 94.36 -430.07 98.68 C-424.03 103.89 -424.03 103.89 -422.42 107.1 C-420.24 107.64 -420.24 107.64 -417.67 107.97 C-413.26 108.78 -410.58 109.74 -407.42 113.1 C-406.74 114.42 -406.07 115.76 -405.42 117.1 C-403.94 117.59 -403.94 117.59 -402.42 118.1 C-402.42 118.76 -402.42 119.42 -402.42 120.1 C-398.96 119.6 -398.96 119.6 -395.42 119.1 C-392.42 122.85 -392.42 122.85 -392.42 125.1 C-391.73 125.23 -391.05 125.36 -390.34 125.5 C-388.99 125.76 -388.99 125.76 -387.61 126.04 C-386.27 126.3 -386.27 126.3 -384.9 126.56 C-382.42 127.1 -382.42 127.1 -379.42 128.1 C-379.12 128.75 -378.83 129.39 -378.52 130.06 C-377.59 132.28 -377.59 132.28 -375.29 133.04 C-374.09 133.35 -374.09 133.35 -372.86 133.66 C-370.42 134.29 -370.42 134.29 -368.42 135.1 C-368.09 136.09 -367.76 137.08 -367.42 138.1 C-364.63 139.13 -364.63 139.13 -361.36 139.79 C-360.25 140.04 -359.15 140.29 -358.01 140.55 C-357.16 140.73 -356.3 140.91 -355.42 141.1 C-355.42 142.09 -355.42 143.08 -355.42 144.1 C-350.61 146.62 -346.08 146.29 -340.8 146.16 C-339.1 146.13 -337.4 146.1 -335.7 146.07 C-334.95 146.05 -334.2 146.03 -333.43 146.02 C-331.42 146.1 -331.42 146.1 -328.42 147.1 C-328.09 148.75 -327.76 150.4 -327.42 152.1 C-318.18 152.43 -308.94 152.76 -299.42 153.1 C-299.09 154.42 -298.76 155.74 -298.42 157.1 C-307.78 158.15 -317.15 158.64 -326.55 159.16 C-328.19 159.25 -329.83 159.34 -331.47 159.44 C-335.45 159.66 -339.44 159.88 -343.42 160.1 C-337.68 163.17 -331.79 162.27 -325.42 162.1 C-323.82 162.06 -323.82 162.06 -322.19 162.02 C-318.56 161.94 -314.93 161.83 -311.3 161.72 C-309.5 161.68 -309.5 161.68 -307.67 161.63 C-306.53 161.59 -305.4 161.55 -304.23 161.51 C-303.21 161.48 -302.18 161.45 -301.13 161.42 C-298.49 161.29 -298.49 161.29 -296.74 160.09 C-293.42 158.67 -290.2 158.82 -286.66 158.84 C-285.49 158.83 -285.49 158.83 -284.3 158.83 C-281.73 158.82 -279.17 158.83 -276.6 158.83 C-274.82 158.83 -273.04 158.83 -271.25 158.83 C-267.52 158.82 -263.78 158.83 -260.05 158.84 C-255.26 158.85 -250.46 158.84 -245.67 158.83 C-241.99 158.82 -238.31 158.82 -234.63 158.83 C-232.86 158.83 -231.09 158.83 -229.33 158.83 C-226.86 158.82 -224.4 158.83 -221.93 158.84 C-221.19 158.83 -220.46 158.83 -219.7 158.83 C-214.65 158.87 -214.65 158.87 -212.42 161.1 C-210.5 161.43 -210.5 161.43 -208.28 161.43 C-207.43 161.46 -206.57 161.48 -205.69 161.5 C-204.77 161.52 -203.84 161.53 -202.89 161.55 C-201.94 161.57 -201 161.59 -200.02 161.61 C-198.02 161.66 -196.01 161.7 -194.01 161.73 C-190.93 161.78 -187.86 161.86 -184.79 161.93 C-182.84 161.97 -180.9 162.01 -178.95 162.05 C-177.57 162.08 -177.57 162.08 -176.15 162.11 C-175.3 162.12 -174.44 162.14 -173.56 162.15 C-172.43 162.17 -172.43 162.17 -171.28 162.19 C-169.33 162.22 -169.33 162.22 -167.42 161.1 C-169.53 158.99 -174.21 159.89 -177.13 159.85 C-178.93 159.82 -180.73 159.79 -182.53 159.75 C-185.38 159.7 -188.23 159.66 -191.09 159.62 C-193.83 159.58 -196.57 159.53 -199.32 159.48 C-200.17 159.47 -201.02 159.46 -201.9 159.45 C-203.09 159.43 -203.09 159.43 -204.31 159.4 C-205.36 159.39 -205.36 159.39 -206.43 159.37 C-208.75 159.05 -210.39 158.24 -212.42 157.1 C-212.42 155.78 -212.42 154.46 -212.42 153.1 C-207.23 151.97 -202.49 152.16 -197.23 152.54 C-195.64 152.64 -194.04 152.74 -192.44 152.84 C-191.74 152.89 -191.04 152.94 -190.32 152.99 C-188.69 153.08 -187.05 153.1 -185.42 153.1 C-186.08 152.11 -186.74 151.12 -187.42 150.1 C-187.09 148.78 -186.76 147.46 -186.42 146.1 C-178.83 145.77 -171.24 145.44 -163.42 145.1 C-163.09 143.45 -162.76 141.8 -162.42 140.1 C-158.79 139.77 -155.16 139.44 -151.42 139.1 C-149.94 135.63 -149.94 135.63 -148.42 132.1 C-145.12 132.1 -141.82 132.1 -138.42 132.1 C-138.42 131.44 -138.42 130.78 -138.42 130.1 C-137.76 130.1 -137.1 130.1 -136.42 130.1 C-136.09 128.78 -135.76 127.46 -135.42 126.1 C-134.75 126 -134.07 125.9 -133.38 125.8 C-127.89 124.88 -125.33 124.14 -121.42 120.1 C-118.17 120.35 -118.17 120.35 -115.42 121.1 C-115.42 120.44 -115.42 119.78 -115.42 119.1 C-113.78 117.48 -113.78 117.48 -111.61 115.66 C-108.66 113.19 -108.66 113.19 -105.94 110.48 C-104.05 108.76 -102.36 108.21 -99.92 107.47 C-99.15 107.23 -98.38 106.99 -97.58 106.75 C-96.87 106.53 -96.15 106.32 -95.42 106.1 C-93.94 105.6 -93.94 105.6 -92.42 105.1 C-92.42 104.44 -92.42 103.78 -92.42 103.1 C-91.09 101.79 -91.09 101.79 -89.17 100.22 C-84.26 96.06 -79.78 91.53 -75.25 86.96 C-74.78 86.49 -74.31 86.01 -73.82 85.52 C-72.44 84.12 -71.07 82.71 -69.7 81.3 C-67.42 79.1 -67.42 79.1 -65.23 78.04 C-63.28 77.27 -63.28 77.27 -62.66 75.4 C-60.93 72.18 -58.4 69.89 -55.79 67.38 C-54.66 66.27 -53.54 65.16 -52.41 64.05 C-50.63 62.32 -48.85 60.59 -47.07 58.86 C-45.35 57.19 -43.63 55.5 -41.92 53.82 C-41.11 53.05 -41.11 53.05 -40.3 52.26 C-36.56 48.57 -35.48 46.47 -35.36 41.35 C-35.39 40.23 -35.39 40.23 -35.42 39.1 C-34.8 39.02 -34.18 38.93 -33.55 38.85 C-31.28 38.33 -31.28 38.33 -30.55 36.35 C-29.42 34.1 -29.42 34.1 -26.36 31.91 C-24.23 30.27 -23.51 29.55 -22.98 26.88 C-22.9 25.29 -22.83 23.69 -22.76 22.09 C-22.65 21.43 -22.54 20.77 -22.42 20.1 C-20.76 19.1 -19.09 18.1 -17.42 17.1 C-16.66 14.11 -16.49 11.17 -16.42 8.1 C-15.47 7.91 -15.47 7.91 -14.5 7.72 C-12.25 7.3 -12.25 7.3 -11.23 5.16 C-10.97 4.48 -10.7 3.8 -10.42 3.1 C-9.42 1.1 -9.42 1.1 -7.7 0.48 C-5.09 0.04 -2.64 -0.01 0 0 Z " fill="#989898" transform="translate(904.421875,684.90234375)"/>
<path d="M0 0 C0.99 1.02 0.99 1.02 2 2.06 C4.77 4.84 7.73 7.36 10.74 9.86 C12.67 11.69 14.35 13.53 16.07 15.54 C20.32 20.45 24.89 25.04 29.49 29.62 C30.94 31.06 32.38 32.51 33.82 33.96 C38.52 38.66 43.28 43.26 48.35 47.58 C54.4 52.79 54.4 52.79 56 56 C58.19 56.54 58.19 56.54 60.75 56.88 C65.16 57.68 67.84 58.65 71 62 C71.68 63.33 72.35 64.66 73 66 C74.49 66.5 74.49 66.5 76 67 C76 67.66 76 68.32 76 69 C79.47 68.5 79.47 68.5 83 68 C86 71.75 86 71.75 86 74 C86.69 74.13 87.37 74.27 88.08 74.4 C89.43 74.67 89.43 74.67 90.81 74.94 C92.15 75.2 92.15 75.2 93.52 75.46 C96 76 96 76 99 77 C99.3 77.65 99.6 78.3 99.9 78.96 C100.83 81.19 100.83 81.19 103.13 81.94 C103.93 82.15 104.74 82.35 105.56 82.56 C108 83.19 108 83.19 110 84 C110.33 84.99 110.66 85.98 111 87 C113.79 88.03 113.79 88.03 117.06 88.69 C118.17 88.94 119.27 89.19 120.41 89.45 C121.26 89.63 122.12 89.81 123 90 C123 90.99 123 91.98 123 93 C127.81 95.52 132.35 95.19 137.62 95.06 C139.33 95.03 141.03 95 142.73 94.97 C143.48 94.95 144.22 94.94 144.99 94.92 C147 95 147 95 150 96 C150.33 97.65 150.66 99.3 151 101 C164.86 101.5 164.86 101.5 179 102 C179.33 103.32 179.66 104.64 180 106 C170.64 107.05 161.27 107.55 151.88 108.06 C150.23 108.15 148.59 108.25 146.95 108.34 C142.97 108.56 138.98 108.78 135 109 C135.64 109.27 136.28 109.54 136.94 109.81 C139 111 139 111 140 114 C135.6 114.03 131.21 114.05 126.81 114.06 C125.57 114.07 124.32 114.08 123.04 114.09 C121.23 114.09 121.23 114.09 119.39 114.1 C117.74 114.11 117.74 114.11 116.05 114.11 C113.24 114.01 110.73 113.64 108 113 C108 113.66 108 114.32 108 115 C107.34 115 106.68 115 106 115 C105.34 113.68 104.68 112.36 104 111 C102.95 111.1 101.9 111.21 100.81 111.31 C96.05 110.92 95.12 109.45 92 106 C89.56 105.06 87.5 104.96 84.88 104.75 C83.45 104.38 83.45 104.38 82 104 C80.62 101.44 80.62 101.44 80 99 C79.41 99 78.82 98.99 78.21 98.99 C71.7 98.67 71.7 98.67 69.54 96.6 C69.15 96.05 68.77 95.5 68.38 94.94 C67.2 93.48 67.2 93.48 66 92 C63.67 91.96 61.33 91.96 59 92 C56.37 89.69 56.37 89.69 54 87 C53.13 86.48 52.27 85.97 51.38 85.44 C49 84 49 84 47.69 81.94 C45.44 79.36 43.22 79.35 39.98 78.68 C37.25 77.74 35.93 75.93 34.27 73.63 C32.88 71.84 31.38 70.55 29.62 69.12 C27.08 67.03 24.98 64.86 22.89 62.3 C20.22 59.19 17.45 56.68 14.2 54.19 C6.89 48.32 0.11 42.7 -1.28 33.03 C-2.35 22.03 -1.66 10.9 0 0 Z " fill="#989797" transform="translate(426,736)"/>
<path d="M0 0 C1.02 0 2.05 0.01 3.11 0.01 C4.17 0.02 5.23 0.03 6.33 0.04 C7.41 0.04 8.49 0.04 9.6 0.05 C12.26 0.06 14.92 0.08 17.58 0.1 C18.98 2.9 18.83 5 18.58 8.1 C17.27 9.97 17.27 9.97 15.58 11.1 C14.59 11.1 13.6 11.1 12.58 11.1 C12.58 11.78 12.58 12.47 12.58 13.18 C12.58 16.82 12.58 20.46 12.58 24.1 C10.6 24.1 8.62 24.1 6.58 24.1 C6.68 25.11 6.68 25.11 6.79 26.14 C6.96 28.9 7.02 31.37 6.58 34.1 C4.61 35.48 2.61 36.81 0.58 38.1 C0.05 40.42 -0.05 42.6 -0.15 44.98 C-0.54 48.03 -2.06 49.25 -4.42 51.1 C-4.92 52.09 -4.92 52.09 -5.42 53.1 C-6.37 53.61 -7.32 54.13 -8.3 54.66 C-11.78 56.86 -11.78 56.86 -12.31 60.9 C-14.74 68.68 -21.6 74.09 -27.26 79.66 C-28.55 80.95 -29.84 82.24 -31.12 83.53 C-33.81 86.21 -36.5 88.89 -39.21 91.56 C-42.68 94.98 -46.12 98.42 -49.56 101.88 C-52.21 104.53 -54.87 107.18 -57.53 109.82 C-58.81 111.09 -60.08 112.36 -61.35 113.63 C-63.12 115.4 -64.9 117.16 -66.69 118.92 C-67.21 119.44 -67.74 119.97 -68.28 120.52 C-72.4 124.52 -74.8 124.1 -80.42 124.1 C-79.05 120.94 -78.43 120.1 -75.42 118.1 C-74.49 116.78 -73.62 115.42 -72.78 114.03 C-69.35 108.75 -65.23 104.52 -60.74 100.12 C-59.93 99.32 -59.12 98.51 -58.28 97.67 C-55.71 95.12 -53.13 92.58 -50.55 90.04 C-48.79 88.29 -47.04 86.55 -45.28 84.81 C-41 80.56 -36.72 76.33 -32.42 72.1 C-35.78 72.83 -37.05 73.63 -39.42 76.1 C-40.16 76.51 -40.89 76.92 -41.65 77.34 C-44.99 79.46 -47.63 82.05 -50.38 84.86 C-50.93 85.41 -51.47 85.96 -52.04 86.53 C-53.78 88.28 -55.51 90.03 -57.23 91.79 C-58.42 92.98 -59.6 94.17 -60.78 95.36 C-63.67 98.27 -66.55 101.18 -69.42 104.1 C-70.08 103.44 -70.74 102.78 -71.42 102.1 C-70.93 100.61 -70.93 100.61 -70.42 99.1 C-69.85 98.97 -69.27 98.84 -68.68 98.7 C-63.83 97.4 -60.32 92.47 -56.83 88.95 C-55.31 87.42 -53.77 85.91 -52.22 84.4 C-51.24 83.42 -50.27 82.44 -49.29 81.46 C-48.4 80.58 -47.52 79.69 -46.6 78.78 C-44.29 75.94 -43.34 73.62 -42.42 70.1 C-43.15 70.73 -43.15 70.73 -43.88 71.38 C-44.51 71.92 -45.15 72.47 -45.8 73.04 C-46.42 73.58 -47.05 74.13 -47.7 74.69 C-49.42 76.1 -49.42 76.1 -51.42 77.1 C-50.22 74.6 -48.97 72.42 -47.42 70.1 C-49.53 72.06 -51.25 73.79 -52.66 76.33 C-54.95 79.94 -57.76 82.73 -60.8 85.72 C-61.36 86.29 -61.93 86.87 -62.51 87.46 C-65.63 90.57 -68.6 92.87 -72.42 95.1 C-75.25 97.61 -77.97 100.21 -80.7 102.82 C-83.27 104.97 -85.26 106.08 -88.42 107.1 C-86.1 101.42 -82.7 98.22 -78.23 94.22 C-71.09 87.66 -64.13 80.94 -57.28 74.08 C-56.21 73.02 -55.15 71.95 -54.09 70.9 C-52.58 69.39 -51.07 67.88 -49.56 66.37 C-48.69 65.5 -47.82 64.63 -46.92 63.73 C-44.28 60.95 -41.86 58.06 -39.42 55.1 C-38.44 54.08 -37.45 53.07 -36.42 52.1 C-44.89 59.24 -52.77 66.96 -59.95 75.41 C-61.39 77.06 -62.79 78.64 -64.42 80.1 C-65.08 80.1 -65.74 80.1 -66.42 80.1 C-66.67 80.68 -66.92 81.25 -67.17 81.85 C-68.6 84.43 -70.21 86.16 -72.42 88.1 C-73.08 88.1 -73.74 88.1 -74.42 88.1 C-74.75 89.09 -75.08 90.08 -75.42 91.1 C-77.02 92.71 -77.02 92.71 -79.05 94.41 C-79.76 95.02 -80.48 95.62 -81.21 96.25 C-81.94 96.86 -82.67 97.47 -83.42 98.1 C-84.76 99.24 -86.09 100.39 -87.42 101.54 C-88.91 102.8 -88.91 102.8 -90.42 104.1 C-89.02 100.92 -87.37 98.81 -84.9 96.38 C-84.21 95.7 -83.52 95.01 -82.8 94.3 C-82.08 93.6 -81.36 92.89 -80.61 92.16 C-79.54 91.11 -79.54 91.11 -78.45 90.03 C-77.07 88.66 -75.68 87.3 -74.29 85.94 C-72.69 84.36 -71.12 82.77 -69.55 81.16 C-67.42 79.1 -67.42 79.1 -65.23 78.04 C-63.28 77.27 -63.28 77.27 -62.66 75.4 C-60.93 72.18 -58.4 69.89 -55.79 67.38 C-54.66 66.27 -53.54 65.16 -52.41 64.05 C-50.63 62.32 -48.85 60.59 -47.07 58.86 C-45.35 57.19 -43.63 55.5 -41.92 53.82 C-41.38 53.3 -40.85 52.79 -40.3 52.26 C-36.56 48.57 -35.48 46.47 -35.36 41.35 C-35.38 40.61 -35.4 39.86 -35.42 39.1 C-34.8 39.02 -34.18 38.93 -33.55 38.85 C-31.28 38.33 -31.28 38.33 -30.55 36.35 C-29.42 34.1 -29.42 34.1 -26.36 31.91 C-24.23 30.27 -23.51 29.55 -22.98 26.88 C-22.9 25.29 -22.83 23.69 -22.76 22.09 C-22.65 21.43 -22.54 20.77 -22.42 20.1 C-20.76 19.1 -19.09 18.1 -17.42 17.1 C-16.66 14.11 -16.49 11.17 -16.42 8.1 C-15.79 7.97 -15.15 7.85 -14.5 7.72 C-12.25 7.3 -12.25 7.3 -11.23 5.16 C-10.97 4.48 -10.7 3.8 -10.42 3.1 C-9.42 1.1 -9.42 1.1 -7.7 0.48 C-5.09 0.04 -2.64 -0.01 0 0 Z " fill="#989797" transform="translate(904.421875,684.90234375)"/>
<path d="M0 0 C2.72 -0.05 5.43 -0.09 8.14 -0.08 C9.08 -0.11 10.01 -0.14 10.97 -0.17 C17.64 -0.18 20.97 0.96 25.96 5.42 C28.14 8.36 28.14 8.36 29.96 11.42 C30.64 12.28 31.33 13.15 32.03 14.04 C34.51 18.39 34.59 21.64 34.52 26.54 C34.55 27.74 34.55 27.74 34.59 28.96 C34.59 31.23 34.5 33.21 33.96 35.42 C31.51 37.81 31.51 37.81 28.96 39.42 C28.48 40.27 28.01 41.11 27.52 41.98 C25.5 45.14 23.32 45.88 19.96 47.42 C19.56 47.95 19.17 48.48 18.77 49.02 C15.8 51.31 12.5 50.5 8.96 50.17 C8.23 50.12 7.51 50.06 6.76 50.01 C3.65 49.76 0.93 49.41 -2.04 48.42 C-2.7 47.43 -3.36 46.44 -4.04 45.42 C-6.02 44.37 -8.02 43.37 -10.04 42.42 C-11.04 41.42 -11.04 41.42 -11.11 38.86 C-11.09 38.05 -11.06 37.25 -11.04 36.42 C-11.7 36.42 -12.36 36.42 -13.04 36.42 C-13.04 35.76 -13.04 35.1 -13.04 34.42 C-14.03 34.09 -15.02 33.76 -16.04 33.42 C-16.15 30.5 -16.23 27.59 -16.29 24.67 C-16.33 23.84 -16.36 23.02 -16.4 22.17 C-16.5 15.98 -16.5 15.98 -14.08 13 C-13.41 12.48 -12.74 11.96 -12.04 11.42 C-11.61 10.15 -11.61 10.15 -11.17 8.86 C-9.6 5.45 -7.37 4.95 -4.04 3.42 C-2.04 0.42 -2.04 0.42 0 0 Z " fill="#010101" transform="translate(498.043701171875,392.580078125)"/>
<path d="M0 0 C7.19 6.12 8.66 11.27 9.59 20.39 C10.06 26.32 9.89 30.79 6.15 35.62 C2.45 39.56 -1.14 42.27 -6.14 44.41 C-6.8 45.07 -7.46 45.73 -8.14 46.41 C-15.86 47.68 -21.55 46.46 -27.95 42.05 C-28.67 41.51 -29.39 40.97 -30.14 40.41 C-30.75 40.02 -31.36 39.63 -31.98 39.22 C-36.09 36.33 -37.26 33.15 -38.5 28.5 C-39.11 26.14 -39.11 26.14 -41.14 23.41 C-40.74 19.19 -39.61 15.26 -38.32 11.23 C-38.01 10.2 -37.69 9.18 -37.37 8.12 C-36.02 5.16 -34.94 4.02 -32.14 2.41 C-31.48 2.41 -30.82 2.41 -30.14 2.41 C-29.83 1.77 -29.52 1.14 -29.2 0.48 C-28.14 -1.59 -28.14 -1.59 -27.14 -2.59 C-18.36 -4.02 -7.55 -5.6 0 0 Z " fill="#020202" transform="translate(752.13671875,490.5859375)"/>
<path d="M0 0 C1.17 -0.01 1.17 -0.01 2.36 -0.01 C4.92 -0.02 7.49 -0.01 10.05 -0.01 C11.84 -0.01 13.62 -0.01 15.4 -0.01 C19.14 -0.02 22.87 -0.01 26.61 -0 C31.4 0.01 36.19 0 40.98 -0.01 C44.66 -0.02 48.35 -0.01 52.03 -0.01 C53.79 -0.01 55.56 -0.01 57.33 -0.01 C59.79 -0.02 62.26 -0.01 64.73 0 C65.46 -0 66.2 -0.01 66.95 -0.01 C72.01 0.03 72.01 0.03 74.23 2.26 C76.22 2.58 76.22 2.58 78.53 2.56 C79.86 2.59 79.86 2.59 81.22 2.61 C82.18 2.62 83.14 2.63 84.13 2.64 C85.12 2.65 86.11 2.67 87.12 2.69 C90.28 2.74 93.45 2.78 96.61 2.82 C99.76 2.87 102.92 2.91 106.07 2.96 C108.04 3 110.01 3.02 111.97 3.04 C113.31 3.06 113.31 3.06 114.68 3.09 C115.47 3.09 116.25 3.1 117.06 3.11 C119.23 3.26 121.13 3.73 123.23 4.26 C126.44 4.25 129.63 4.19 132.83 4.04 C137.81 3.94 137.81 3.94 140.2 5.77 C140.54 6.26 140.88 6.75 141.23 7.26 C140.57 8.25 139.91 9.24 139.23 10.26 C136.28 10.55 133.54 10.63 130.58 10.6 C129.67 10.59 128.77 10.59 127.83 10.59 C124.77 10.59 121.72 10.56 118.66 10.54 C116.48 10.53 114.29 10.53 112.11 10.52 C106.16 10.5 100.21 10.47 94.27 10.43 C88.06 10.39 81.85 10.36 75.64 10.34 C65.21 10.29 54.78 10.23 44.34 10.17 C33.6 10.1 22.86 10.04 12.12 10 C-0.81 9.95 -13.74 9.89 -26.67 9.82 C-31.61 9.79 -36.56 9.77 -41.5 9.75 C-47.32 9.72 -53.14 9.69 -58.96 9.65 C-61.1 9.63 -63.24 9.62 -65.38 9.61 C-68.29 9.6 -71.2 9.58 -74.11 9.56 C-74.97 9.56 -75.82 9.56 -76.71 9.56 C-82.54 9.49 -82.54 9.49 -84.77 7.26 C-84.44 6.6 -84.11 5.94 -83.77 5.26 C-73.54 5.26 -63.31 5.26 -52.77 5.26 C-52.77 4.93 -52.77 4.6 -52.77 4.26 C-45.83 3.66 -38.92 3.25 -31.97 3.04 C-30.76 3 -29.56 2.97 -28.32 2.93 C-25.88 2.86 -23.45 2.79 -21.01 2.74 C-19.88 2.71 -18.74 2.67 -17.57 2.64 C-16.55 2.61 -15.53 2.59 -14.48 2.56 C-11.83 2.46 -11.83 2.46 -10.08 1.26 C-6.77 -0.17 -3.55 -0.02 0 0 Z " fill="#737272" transform="translate(617.76611328125,843.7412109375)"/>
<path d="M0 0 C1.21 0.03 1.21 0.03 2.44 0.06 C2.93 2.54 2.93 2.54 3.44 5.06 C-1.31 8.06 -1.31 8.06 -3.56 8.06 C-3.79 8.89 -4.02 9.73 -4.26 10.58 C-5.81 14.73 -7.88 18.1 -10.38 21.75 C-10.85 22.45 -11.33 23.15 -11.82 23.87 C-16.04 29.8 -20.89 34.3 -26.62 38.73 C-30.52 41.82 -33.79 44.91 -36.56 49.06 C-38.69 49.75 -38.69 49.75 -40.56 50.06 C-42.02 38.61 -42.02 38.61 -41.56 34.06 C-39.69 32.12 -39.69 32.12 -37.56 31.06 C-36.9 31.06 -36.24 31.06 -35.56 31.06 C-35.5 30.34 -35.44 29.62 -35.38 28.88 C-33.29 21.66 -24.53 16.94 -18.56 13.06 C-17.9 13.06 -17.24 13.06 -16.56 13.06 C-16.34 12.3 -16.11 11.54 -15.88 10.75 C-14.25 7.41 -12.82 6.76 -9.56 5.06 C-1.89 0.05 -1.89 0.05 0 0 Z " fill="#F5F3F3" transform="translate(547.5625,715.9375)"/>
<path d="M0 0 C0.72 0.26 1.45 0.53 2.19 0.8 C1.77 5.74 -0.39 7.38 -3.81 10.8 C-7.57 16.19 -9.45 21.35 -10.45 27.83 C-10.81 29.8 -10.81 29.8 -11.81 30.8 C-13.37 31.01 -14.93 31.22 -16.5 31.42 C-21.48 32.37 -23.66 33.97 -26.64 37.99 C-27.61 39.49 -28.53 41.01 -29.43 42.55 C-30.95 45.04 -32.31 46.31 -34.81 47.8 C-35.8 47.8 -36.79 47.8 -37.81 47.8 C-37.81 47.14 -37.81 46.48 -37.81 45.8 C-38.8 45.47 -39.79 45.14 -40.81 44.8 C-41.14 41.17 -41.47 37.54 -41.81 33.8 C-41.13 33.43 -40.45 33.05 -39.75 32.67 C-34.78 29.5 -30.62 26.82 -28.37 21.23 C-25.86 15.72 -21.23 13.88 -15.86 11.48 C-11.44 9.04 -8.61 5.51 -5.27 1.78 C-2.81 -0.2 -2.81 -0.2 0 0 Z " fill="#F6F5F5" transform="translate(642.80859375,716.203125)"/>
<path d="M0 0 C-0.34 5.3 -3.19 7.76 -6.81 11.25 C-7.35 11.79 -7.88 12.33 -8.43 12.89 C-12.48 16.87 -12.48 16.87 -14.99 17.48 C-17.43 18.11 -18.41 19.03 -20.19 20.8 C-20.79 21.39 -21.39 21.98 -22 22.58 C-22.63 23.22 -23.27 23.86 -23.92 24.52 C-24.9 25.5 -24.9 25.5 -25.91 26.5 C-27.3 27.89 -28.68 29.28 -30.06 30.67 C-32.18 32.8 -34.31 34.92 -36.44 37.03 C-37.79 38.38 -39.14 39.73 -40.48 41.08 C-41.12 41.71 -41.76 42.35 -42.42 43 C-43 43.6 -43.59 44.19 -44.2 44.81 C-44.71 45.33 -45.23 45.85 -45.77 46.39 C-47.19 48.24 -47.51 49.74 -48 52 C-49.52 54.14 -49.52 54.14 -51.38 56.25 C-51.98 56.96 -52.59 57.66 -53.21 58.39 C-55.91 60.82 -58.4 60 -62 60 C-60.63 56.84 -60.01 56.01 -57 54 C-56.07 52.68 -55.19 51.31 -54.34 49.93 C-50.96 44.71 -46.91 40.49 -42.5 36.13 C-41.7 35.33 -40.89 34.53 -40.07 33.7 C-38.39 32.03 -36.7 30.35 -35.01 28.68 C-32.43 26.12 -29.86 23.55 -27.3 20.98 C-25.66 19.34 -24.01 17.7 -22.37 16.07 C-21.61 15.3 -20.84 14.54 -20.05 13.75 C-16.57 10.31 -13.39 7.28 -9 5 C-7.94 4.13 -6.89 3.24 -5.88 2.31 C-3 0 -3 0 0 0 Z " fill="#D1C0BB" transform="translate(886,749)"/>
<path d="M0 0 C1.98 0.99 1.98 0.99 4 2 C4 2.66 4 3.32 4 4 C4.56 4.23 5.11 4.45 5.69 4.69 C9.7 6.96 12.45 10.31 15.31 13.88 C17.21 16.2 19.22 18.12 21.52 20.05 C26.72 24.56 31.57 29.39 36.44 34.25 C37.35 35.15 38.26 36.04 39.19 36.97 C40.06 37.83 40.92 38.69 41.81 39.58 C42.59 40.36 43.37 41.13 44.18 41.93 C46 44 46 44 47 47 C42.49 45.54 39.28 43.01 35.75 39.94 C35.18 39.45 34.61 38.96 34.03 38.46 C29.12 34.2 24.51 29.68 20 25 C19.15 24.15 18.31 23.31 17.44 22.44 C13.96 18.96 10.48 15.48 7 12 C6.34 12.66 5.68 13.32 5 14 C7.81 17.35 10.58 20.6 13.75 23.62 C16.03 26.03 17.02 27.87 18 31 C13.72 30.52 11.84 28.05 9 25 C8.09 24.15 7.19 23.31 6.25 22.44 C4.12 20.13 3.34 19.06 3 16 C2.34 16 1.68 16 1 16 C0.67 10.72 0.34 5.44 0 0 Z " fill="#D7C4BE" transform="translate(428,744)"/>
<path d="M0 0 C0.99 1.02 0.99 1.02 2 2.06 C4.77 4.84 7.73 7.36 10.74 9.86 C12.67 11.69 14.35 13.53 16.07 15.54 C20.32 20.45 24.89 25.04 29.49 29.62 C30.94 31.06 32.38 32.51 33.82 33.96 C38.53 38.67 43.3 43.27 48.39 47.58 C50.58 49.51 52.35 51.6 54 54 C54 54.66 54 55.32 54 56 C45.22 51.97 38.5 43.63 31.81 36.88 C30.94 35.99 30.06 35.11 29.16 34.21 C23.11 28.13 23.11 28.13 20.4 25.37 C18.21 23.16 15.98 21.08 13.56 19.12 C10.42 16.49 7.83 13.61 5.26 10.42 C4.04 8.86 4.04 8.86 2 8 C2.16 8.65 2.33 9.31 2.5 9.98 C3.13 13.77 3.11 17.48 3.06 21.31 C3.06 22.05 3.05 22.79 3.05 23.56 C3.04 25.37 3.02 27.19 3 29 C-0.78 25.23 -0.58 21.23 -0.75 16.19 C-0.81 15.01 -0.81 15.01 -0.88 13.82 C-1.09 9.06 -0.83 4.69 0 0 Z " fill="#363737" transform="translate(426,736)"/>
<path d="M0 0 C0.66 0.66 1.32 1.32 2 2 C1.58 2.41 1.15 2.83 0.71 3.25 C-7.07 10.67 -7.07 10.67 -13.3 19.33 C-15.57 22.9 -18.38 25.67 -21.38 28.62 C-21.94 29.2 -22.5 29.77 -23.09 30.36 C-26.21 33.47 -29.18 35.77 -33 38 C-35.83 40.51 -38.55 43.11 -41.28 45.72 C-43.85 47.87 -45.84 48.99 -49 50 C-46.66 44.22 -43.1 40.94 -38.56 36.88 C-30.66 29.64 -23.08 22.14 -15.6 14.48 C-14.8 13.66 -14 12.85 -13.17 12.01 C-12.46 11.28 -11.75 10.56 -11.02 9.81 C-9.08 8.07 -7.35 7.08 -5 6 C-3.49 4.53 -3.49 4.53 -2.25 2.88 C-1.51 1.93 -0.76 0.98 0 0 Z " fill="#D6C3BE" transform="translate(865,742)"/>
<path d="M0 0 C0.33 0 0.66 0 1 0 C1.53 4.1 1.29 5.61 -1.24 8.96 C-2.28 10.02 -3.34 11.07 -4.42 12.1 C-4.99 12.67 -5.57 13.25 -6.16 13.84 C-8.06 15.74 -9.98 17.62 -11.91 19.49 C-13.23 20.81 -14.55 22.12 -15.87 23.43 C-19.35 26.89 -22.85 30.33 -26.35 33.76 C-29.92 37.27 -33.47 40.8 -37.03 44.32 C-44 51.23 -50.99 58.12 -58 65 C-58 61.45 -57.46 61.07 -55.12 58.56 C-53.47 56.77 -52.14 55.29 -51.09 53.09 C-49.96 50.93 -48.79 49.53 -47.08 47.81 C-46.49 47.21 -45.91 46.61 -45.3 46 C-44.67 45.37 -44.04 44.73 -43.38 44.08 C-42.73 43.42 -42.08 42.77 -41.4 42.09 C-40.02 40.7 -38.64 39.32 -37.25 37.94 C-35.13 35.82 -33.02 33.69 -30.92 31.56 C-29.57 30.21 -28.23 28.86 -26.88 27.52 C-26.25 26.88 -25.62 26.24 -24.98 25.58 C-24.38 25 -23.79 24.41 -23.18 23.8 C-22.66 23.29 -22.14 22.77 -21.61 22.23 C-19.75 20.81 -18.25 20.54 -16 20 C-13.99 18.25 -12.16 16.53 -10.31 14.62 C-9.81 14.13 -9.32 13.63 -8.8 13.12 C-6.48 10.77 -5.06 9.18 -4 6 C-2.85 3.48 -1.98 1.98 0 0 Z " fill="#3A3B3B" transform="translate(890,744)"/>
<path d="M0 0 C0 3.52 -0.82 4.37 -3 7 C-2.55 6.5 -2.09 6.01 -1.62 5.5 C0 4 0 4 2 4 C2.33 3.01 2.66 2.02 3 1 C3.66 1.66 4.32 2.32 5 3 C2.91 7.72 0.45 10.94 -3.18 14.58 C-3.93 15.33 -3.93 15.33 -4.69 16.1 C-5.73 17.14 -6.78 18.19 -7.83 19.22 C-9.44 20.81 -11.03 22.42 -12.62 24.03 C-13.64 25.05 -14.66 26.07 -15.68 27.08 C-16.61 28 -17.53 28.92 -18.48 29.87 C-20.91 31.92 -21.98 32.48 -25 33 C-25.99 33.66 -26.98 34.32 -28 35 C-28 32 -28 32 -27 30 C-26.01 30 -25.02 30 -24 30 C-23.67 28.68 -23.34 27.36 -23 26 C-23.99 26.99 -24.98 27.98 -26 29 C-26.66 28.67 -27.32 28.34 -28 28 C-26.02 25.88 -24.28 24.16 -21.74 22.73 C-18.33 20.57 -15.7 17.99 -12.88 15.12 C-12.35 14.61 -11.83 14.09 -11.29 13.56 C-8.31 10.57 -6.08 7.7 -4 4 C-2.7 2.63 -1.38 1.28 0 0 Z " fill="#7C7A79" transform="translate(858,753)"/>
<path d="M0 0 C9.24 0 18.48 0 28 0 C28.5 1.98 28.5 1.98 29 4 C26.64 4.24 24.29 4.48 21.93 4.71 C20.12 4.89 18.31 5.08 16.51 5.29 C9.2 6.05 1.9 6.14 -5.44 6.19 C-6.49 6.2 -7.55 6.21 -8.64 6.23 C-10.14 6.23 -10.14 6.23 -11.68 6.23 C-12.59 6.23 -13.49 6.24 -14.42 6.24 C-17.26 5.98 -19.42 5.17 -22 4 C-21.67 3.34 -21.34 2.68 -21 2 C-20.05 2.02 -19.1 2.04 -18.12 2.06 C-15.09 2.23 -15.09 2.23 -13 1 C-11.45 1.09 -9.91 1.24 -8.38 1.44 C-7.15 1.59 -7.15 1.59 -5.9 1.75 C-4.96 1.87 -4.96 1.87 -4 2 C-4 2.66 -4 3.32 -4 4 C-3.34 4 -2.68 4 -2 4 C-1.34 2.68 -0.68 1.36 0 0 Z " fill="#6F6E6E" transform="translate(577,838)"/>
<path d="M0 0 C2.12 0.38 2.12 0.38 4 1 C-1.37 6.42 -6.74 11.83 -12.13 17.24 C-13.96 19.08 -15.79 20.92 -17.61 22.76 C-20.24 25.41 -22.86 28.05 -25.49 30.69 C-26.72 31.93 -26.72 31.93 -27.98 33.21 C-28.74 33.97 -29.5 34.73 -30.28 35.51 C-30.96 36.19 -31.63 36.86 -32.32 37.56 C-34 39 -34 39 -36 39 C-35.47 35.23 -34.68 33.16 -32.1 30.36 C-31.47 29.68 -30.84 28.99 -30.19 28.28 C-25.96 23.87 -21.69 19.51 -17.38 15.19 C-16.44 14.24 -15.5 13.29 -14.56 12.34 C-13.66 11.44 -12.76 10.53 -11.84 9.61 C-11.03 8.79 -10.22 7.98 -9.38 7.14 C-7.05 5.04 -4.71 3.56 -2 2 C-1.34 1.34 -0.68 0.68 0 0 Z " fill="#737272" transform="translate(869,756)"/>
<path d="M0 0 C0.96 0.04 1.92 0.09 2.91 0.13 C4.41 0.21 4.41 0.21 5.95 0.29 C7.44 0.35 7.44 0.35 8.95 0.42 C13.78 0.65 18.44 1.03 23.2 1.91 C25.55 2.08 27.9 2.22 30.25 2.34 C32.2 2.91 32.2 2.91 33.33 4.95 C33.76 5.92 33.76 5.92 34.2 6.91 C29.01 6.96 23.81 7 18.61 7.02 C16.85 7.03 15.08 7.05 13.31 7.06 C10.77 7.09 8.23 7.1 5.69 7.11 C4.5 7.12 4.5 7.12 3.3 7.14 C-0.55 7.14 -3.54 7.1 -6.8 4.91 C-6.8 3.59 -6.8 2.27 -6.8 0.91 C-4.3 -0.33 -2.78 -0.13 0 0 Z " fill="#747373" transform="translate(698.796875,837.0859375)"/>
<path d="M0 0 C1.98 0 3.96 0 6 0 C6.99 2.64 7.98 5.28 9 8 C5.67 9.98 3.04 10.3 -0.8 10.41 C-1.94 10.45 -3.07 10.49 -4.24 10.53 C-6.04 10.58 -6.04 10.58 -7.88 10.62 C-9.7 10.68 -9.7 10.68 -11.56 10.73 C-13.97 10.8 -16.37 10.86 -18.77 10.92 C-21.42 10.99 -24.07 11.07 -26.72 11.16 C-27.93 11.19 -29.13 11.22 -30.38 11.25 C-31.87 11.29 -31.87 11.29 -33.4 11.33 C-36.55 10.93 -38.44 9.84 -41 8 C-41 7.67 -41 7.34 -41 7 C-35.09 6.71 -29.18 6.43 -23.28 6.15 C-21.27 6.05 -19.26 5.95 -17.25 5.85 C-14.36 5.71 -11.47 5.58 -8.58 5.44 C-7.23 5.37 -7.23 5.37 -5.86 5.3 C-5.02 5.26 -4.18 5.22 -3.31 5.18 C-2.57 5.15 -1.84 5.11 -1.08 5.08 C0.95 5 2.97 5 5 5 C4.33 1.89 4.33 1.89 1.94 0.81 C1.3 0.54 0.66 0.28 0 0 Z " fill="#D6C4BE" transform="translate(601,837)"/>
<path d="M0 0 C3.73 1.24 4.56 2.71 6.95 5.81 C11.71 11.77 16.87 17.18 22.29 22.55 C23.84 24.09 25.37 25.63 26.91 27.19 C27.91 28.18 28.9 29.17 29.89 30.16 C30.78 31.04 31.67 31.93 32.58 32.84 C34.83 35.04 34.83 35.04 37.25 36.11 C39 37 39 37 40.06 40.06 C40.37 41.03 40.68 42 41 43 C41.99 43.33 42.98 43.66 44 44 C42.38 44.81 42.38 44.81 40 45 C33.86 40.56 28.82 34.85 23.75 29.25 C20.09 25.22 16.35 21.33 12.44 17.55 C11.66 16.79 10.89 16.04 10.09 15.26 C8.55 13.77 7 12.29 5.44 10.83 C4.73 10.14 4.02 9.46 3.3 8.75 C2.66 8.15 2.03 7.54 1.37 6.92 C-0.37 4.48 -0.27 2.93 0 0 Z " fill="#363737" transform="translate(426,770)"/>
<path d="M0 0 C3.49 1.16 3.61 1.64 5.38 4.69 C9.6 11.32 15.13 16.75 20.53 22.43 C22.32 24.35 24.05 26.32 25.75 28.31 C29.02 32.13 32.62 35.57 36.28 39.02 C38 41 38 41 38 44 C37.34 44 36.68 44 36 44 C36 43.01 36 42.02 36 41 C35.29 40.78 34.59 40.56 33.86 40.34 C30.32 38.68 27.94 36.34 25.25 33.58 C24.72 33.05 24.19 32.51 23.64 31.96 C22.51 30.83 21.39 29.69 20.27 28.55 C18.58 26.83 16.88 25.12 15.17 23.4 C0.12 8.25 0.12 8.25 -0.38 3.06 C-0.25 2.05 -0.13 1.04 0 0 Z " fill="#D6C4BE" transform="translate(429,766)"/>
<path d="M0 0 C0.66 0.99 1.32 1.98 2 3 C7.11 4.11 12.22 4.16 17.42 4.21 C19.02 4.24 20.62 4.27 22.22 4.3 C24.71 4.34 27.21 4.38 29.7 4.4 C32.13 4.43 34.55 4.47 36.98 4.52 C37.73 4.53 38.47 4.53 39.24 4.53 C43.42 4.63 45.96 5.02 49 8 C40.04 9.21 31.19 9.08 22.18 8.87 C19.54 8.81 16.91 8.78 14.28 8.76 C12.61 8.72 10.93 8.68 9.25 8.64 C8.47 8.64 7.69 8.64 6.88 8.63 C1.45 8.46 1.45 8.46 -1.02 5.96 C-1.5 4.99 -1.5 4.99 -2 4 C-1.34 2.68 -0.68 1.36 0 0 Z " fill="#D8C5BF" transform="translate(691,839)"/>
<path d="M0 0 C1.16 1.16 2.33 2.33 3.49 3.5 C4.54 4.54 5.6 5.57 6.67 6.6 C8.15 8.03 9.58 9.51 11 11 C11 11.66 11 12.32 11 13 C11.56 13.24 12.13 13.48 12.71 13.73 C15.45 15.25 17.39 17.06 19.62 19.25 C20.4 20 21.18 20.75 21.98 21.52 C24.21 24.26 25.09 26.61 26 30 C22.02 27.83 19.14 25.32 16 22.06 C13.48 19.45 11.05 17.04 8.19 14.81 C7.47 14.21 6.74 13.61 6 13 C6 12.34 6 11.68 6 11 C5.44 10.79 4.89 10.59 4.31 10.38 C1.07 8.45 -0.68 5.96 -3 3 C-2 1 -2 1 0 0 Z " fill="#787878" transform="translate(435,755)"/>
<path d="M0 0 C-1 3 -1 3 -3.12 4.69 C-5.42 6.53 -6.96 8.05 -8.81 10.27 C-13.93 16.19 -19.51 21.66 -25.05 27.18 C-26.93 29.06 -28.81 30.94 -30.69 32.82 C-41.57 43.71 -41.57 43.71 -47.45 48.67 C-49.77 50.66 -51.88 52.81 -54 55 C-54.66 54.67 -55.32 54.34 -56 54 C-56 53.01 -56 52.02 -56 51 C-55.45 50.94 -54.9 50.88 -54.33 50.82 C-50.95 49.63 -49.21 47.45 -46.75 44.88 C-45.78 43.87 -44.8 42.86 -43.82 41.86 C-43.34 41.37 -42.86 40.88 -42.37 40.37 C-39.93 37.93 -37.31 35.71 -34.7 33.47 C-32.34 31.43 -30.18 29.23 -28 27 C-27.39 26.4 -26.79 25.81 -26.16 25.2 C-22.88 21.96 -19.69 18.7 -16.69 15.19 C-13.65 11.66 -10.46 8.31 -7.19 5 C-6.71 4.51 -6.23 4.01 -5.73 3.5 C-2.24 0 -2.24 0 0 0 Z " fill="#2C2D2D" transform="translate(868,737)"/>
<path d="M0 0 C1.98 0.99 1.98 0.99 4 2 C4 2.66 4 3.32 4 4 C4.66 4 5.32 4 6 4 C5.67 4.99 5.34 5.98 5 7 C5.88 9.66 5.88 9.66 7 12 C6.34 12.66 5.68 13.32 5 14 C7.81 17.35 10.58 20.6 13.75 23.62 C16.03 26.03 17.02 27.87 18 31 C13.72 30.52 11.84 28.05 9 25 C8.09 24.15 7.19 23.31 6.25 22.44 C4.12 20.13 3.34 19.06 3 16 C2.34 16 1.68 16 1 16 C0.67 10.72 0.34 5.44 0 0 Z " fill="#D8C5BF" transform="translate(428,744)"/>
<path d="M0 0 C1.02 0 2.05 0.01 3.11 0.01 C4.17 0.02 5.23 0.03 6.33 0.04 C7.41 0.04 8.49 0.04 9.6 0.05 C12.26 0.06 14.92 0.08 17.58 0.1 C18.93 2.81 18.64 5.11 18.58 8.1 C17.26 8.1 15.94 8.1 14.58 8.1 C14.1 7.61 13.62 7.12 13.13 6.62 C11.66 4.88 11.66 4.88 9.31 4.76 C8.45 4.77 7.58 4.79 6.69 4.8 C5.28 4.82 5.28 4.82 3.85 4.83 C2.38 4.87 2.38 4.87 0.89 4.91 C-0.1 4.92 -1.09 4.94 -2.1 4.95 C-4.54 4.99 -6.98 5.04 -9.42 5.1 C-9.75 4.44 -10.08 3.78 -10.42 3.1 C-9.42 1.1 -9.42 1.1 -7.7 0.48 C-5.09 0.04 -2.64 -0.01 0 0 Z " fill="#727171" transform="translate(904.421875,684.90234375)"/>
<path d="M0 0 C1.32 0 2.64 0 4 0 C4.33 0.99 4.66 1.98 5 3 C5.8 3.62 6.61 4.24 7.44 4.88 C10.18 7.15 10.98 8.65 12 12 C12.66 12 13.32 12 14 12 C16.04 14.91 17 16.4 17 20 C11.58 17.03 7.94 14.51 5 9 C5 8.34 5 7.68 5 7 C4.34 7 3.68 7 3 7 C2.34 8.65 1.68 10.3 1 12 C-1 10 -1 10 -1.23 7.87 C-1.21 6.67 -1.21 6.67 -1.19 5.44 C-1.18 4.63 -1.17 3.83 -1.17 3 C-1 1 -1 1 0 0 Z " fill="#828181" transform="translate(427,760)"/>
<path d="M0 0 C2.53 2.36 3.89 3.66 5 7 C4.34 7.64 3.68 8.28 3 8.94 C0.57 11.36 -1.68 13.91 -3.94 16.5 C-7.07 20.06 -10.25 23.1 -14 26 C-14.81 24.31 -14.81 24.31 -15 22 C-13.4 20.27 -11.72 18.62 -10 17 C-8.25 15.29 -6.5 13.59 -4.75 11.88 C-3.88 11.03 -3.01 10.18 -2.11 9.3 C0.19 7.11 0.19 7.11 1 4 C0.34 3.67 -0.32 3.34 -1 3 C-0.67 2.01 -0.34 1.02 0 0 Z " fill="#E15E93" transform="translate(812,748)"/>
<path d="M0 0 C1.32 0.33 2.64 0.66 4 1 C4.31 3.69 4.31 3.69 4 7 C1.54 9.93 -0.82 11.88 -4 14 C-6.12 13.75 -6.12 13.75 -8 13 C-8.33 12.34 -8.66 11.68 -9 11 C-6.03 7.37 -3.06 3.74 0 0 Z " fill="#F3F0EF" transform="translate(712,733)"/>
<path d="M0 0 C2.41 0.96 3.77 1.69 5.31 3.81 C6.23 6.73 6.05 8.12 5 11 C2.62 13.81 2.62 13.81 0 16 C-0.99 16 -1.98 16 -3 16 C-1.09 20.54 -1.09 20.54 1 25 C1.07 27.04 1.08 29.08 1.06 31.12 C1.05 32.22 1.04 33.32 1.04 34.45 C1.02 35.29 1.01 36.13 1 37 C0.01 37.5 0.01 37.5 -1 38 C-1.04 37.28 -1.07 36.55 -1.11 35.8 C-1.5 30.09 -2.22 26.09 -5 21 C-5.31 18.25 -5.31 18.25 -5 16 C-2.86 13.86 -1.87 13.57 1 13 C1.03 11.58 1.05 10.17 1.06 8.75 C1.07 7.96 1.09 7.17 1.1 6.36 C1 4.09 0.63 2.17 0 0 Z " fill="#E15E93" transform="translate(569,689)"/>
<path d="M0 0 C3 0 3 0 4.39 1.36 C8.31 7.24 8.57 12.05 8 19 C7.01 19.33 6.02 19.66 5 20 C4.41 21.78 4.41 21.78 4.19 23.94 C3.12 29.68 0.38 34.28 -3 39 C-3.33 39 -3.66 39 -4 39 C-4.5 33.74 -3.31 31.09 0 27 C0.66 27 1.32 27 2 27 C2.12 26.11 2.25 25.23 2.38 24.31 C3 21 3 21 4.06 18.56 C5.75 13.94 5.53 10.26 3.62 5.75 C2.47 3.8 1.26 1.89 0 0 Z " fill="#E05F93" transform="translate(758,697)"/>
<path d="M0 0 C0.33 0 0.66 0 1 0 C2.25 6.62 2.25 6.62 0 10 C-0.66 10 -1.32 10 -2 10 C-2 9.34 -2 8.68 -2 8 C-2.57 8.03 -3.14 8.07 -3.72 8.11 C-9.34 8.3 -13 7.55 -18 5 C-13.19 2.22 -8.99 1.6 -3.62 2.94 C-2.43 3.29 -1.23 3.64 0 4 C0 2.68 0 1.36 0 0 Z " fill="#CEBEB9" transform="translate(575,832)"/>
<path d="M0 0 C4.14 0.12 8.29 0.24 12.43 0.37 C13.84 0.42 15.25 0.46 16.65 0.5 C18.69 0.56 20.72 0.62 22.75 0.68 C23.97 0.72 25.19 0.76 26.45 0.79 C30.01 1 33.48 1.44 37 2 C37 2.33 37 2.66 37 3 C31.91 3.19 26.82 3.37 21.73 3.54 C20 3.6 18.26 3.66 16.53 3.72 C14.04 3.82 11.56 3.9 9.07 3.98 C8.29 4.01 7.52 4.04 6.72 4.07 C4.81 4.13 2.9 4.07 1 4 C0.34 3.34 -0.32 2.68 -1 2 C-0.67 1.34 -0.34 0.68 0 0 Z " fill="#565757" transform="translate(534,849)"/>
<path d="M0 0 C-1.4 3.16 -3.05 5.32 -5.5 7.75 C-6.41 8.67 -6.41 8.67 -7.34 9.61 C-9 11 -9 11 -11 11 C-11.25 11.58 -11.5 12.15 -11.75 12.75 C-13.18 15.33 -14.78 17.06 -17 19 C-17.66 19 -18.32 19 -19 19 C-19.33 19.99 -19.66 20.98 -20 22 C-21.6 23.61 -21.6 23.61 -23.62 25.31 C-24.34 25.92 -25.05 26.52 -25.79 27.15 C-26.52 27.76 -27.25 28.37 -28 29 C-29.33 30.14 -30.67 31.29 -32 32.44 C-33.49 33.71 -33.49 33.71 -35 35 C-33.6 31.83 -31.95 29.71 -29.48 27.29 C-28.79 26.6 -28.09 25.91 -27.38 25.21 C-26.66 24.5 -25.93 23.79 -25.19 23.06 C-24.48 22.36 -23.76 21.66 -23.03 20.93 C-21.65 19.57 -20.26 18.2 -18.87 16.84 C-17.27 15.27 -15.69 13.67 -14.12 12.06 C-12 10 -12 10 -9.81 8.94 C-7.43 7.71 -7.13 6.39 -6 4 C-2.44 0 -2.44 0 0 0 Z " fill="#ADA09C" transform="translate(849,754)"/>
<path d="M0 0 C5.4 4.34 9.97 9.14 14.57 14.32 C16.97 16.97 19.45 19.49 22 22 C23.33 23.33 24.67 24.67 26 26 C25.67 26.66 25.34 27.32 25 28 C22.56 25.73 20.12 23.46 17.69 21.19 C17 20.54 16.31 19.9 15.6 19.24 C14.93 18.62 14.26 18 13.57 17.36 C12.96 16.78 12.35 16.21 11.72 15.63 C11.15 15.09 10.58 14.55 10 14 C9.43 13.48 8.86 12.95 8.28 12.42 C7 11 7 11 7 9 C6.42 8.79 5.85 8.59 5.25 8.38 C2.19 6.5 0.84 4.03 -1 1 C-0.67 0.67 -0.34 0.34 0 0 Z " fill="#B5ADAB" transform="translate(573,323)"/>
<path d="M0 0 C0.66 0 1.32 0 2 0 C2 0.99 2 1.98 2 3 C0.68 3.33 -0.64 3.66 -2 4 C-1.34 2.68 -0.68 1.36 0 0 Z M-64 63 C-63.01 63.33 -62.02 63.66 -61 64 C-61.99 64 -62.98 64 -64 64 C-64 63.67 -64 63.34 -64 63 Z M-64 65 C-63.34 65.33 -62.68 65.66 -62 66 C-62.33 66.99 -62.66 67.98 -63 69 C-63.66 69 -64.32 69 -65 69 C-64.67 67.68 -64.34 66.36 -64 65 Z " fill="#F3F1F0" transform="translate(891,748)"/>
<path d="M0 0 C2.5 2.31 2.5 2.31 5 5 C5 5.99 5 6.98 5 8 C4.01 8 3.02 8 2 8 C2.16 8.65 2.33 9.31 2.5 9.98 C3.13 13.77 3.11 17.48 3.06 21.31 C3.06 22.05 3.05 22.79 3.05 23.56 C3.04 25.37 3.02 27.19 3 29 C-0.78 25.23 -0.58 21.23 -0.75 16.19 C-0.81 15.01 -0.81 15.01 -0.88 13.82 C-1.09 9.06 -0.83 4.69 0 0 Z " fill="#515151" transform="translate(426,736)"/>
<path d="M0 0 C7.26 0 14.52 0 22 0 C22.33 0.99 22.66 1.98 23 3 C21.88 3.06 20.76 3.12 19.61 3.18 C18.13 3.27 16.66 3.35 15.19 3.44 C14.45 3.48 13.71 3.52 12.95 3.56 C9.77 3.74 7.04 3.99 4 5 C1.31 4.56 1.31 4.56 -1 4 C-0.67 2.68 -0.34 1.36 0 0 Z " fill="#676767" transform="translate(718,831)"/>
<path d="M0 0 C2.12 0.38 2.12 0.38 4 1 C2.68 1.33 1.36 1.66 0 2 C1.91 6.54 1.91 6.54 4 11 C5.05 21.87 5.05 21.87 2.95 26.12 C1.62 27.69 1.62 27.69 -1 30 C-1.66 30.66 -2.32 31.32 -3 32 C-2.58 29.07 -2.14 27.2 -0.44 24.75 C1.61 20.83 1.6 17.34 1 13 C0.06 10.97 -0.93 8.96 -2 7 C-2.31 4.25 -2.31 4.25 -2 2 C-1.34 1.34 -0.68 0.68 0 0 Z " fill="#E16497" transform="translate(661,703)"/>
<path d="M0 0 C0.57 0.33 1.13 0.65 1.72 0.99 C4.22 2.1 5.83 2.23 8.55 2.2 C9.39 2.19 10.24 2.18 11.11 2.18 C12.41 2.15 12.41 2.15 13.75 2.12 C14.64 2.12 15.53 2.11 16.44 2.1 C18.63 2.07 20.81 2.04 23 2 C23.33 3.65 23.66 5.3 24 7 C21.85 6.86 19.71 6.71 17.56 6.56 C16.37 6.48 15.17 6.4 13.94 6.32 C11 6 11 6 10 5 C8.48 4.93 6.96 4.92 5.44 4.94 C4.2 4.95 4.2 4.95 2.93 4.96 C1.98 4.98 1.98 4.98 1 5 C0.67 3.35 0.34 1.7 0 0 Z " fill="#5E5E5E" transform="translate(550,829)"/>
<path d="M0 0 C2.44 1.31 2.44 1.31 3.25 3.44 C3.31 4.06 3.37 4.67 3.44 5.31 C1.46 6.3 1.46 6.3 -0.56 7.31 C-0.56 6.65 -0.56 5.99 -0.56 5.31 C-4.88 5.79 -6.84 6.93 -9.56 10.31 C-10.82 12.94 -10.82 12.94 -11.56 15.31 C-12.25 13.62 -12.25 13.62 -12.56 11.31 C-10.34 6.62 -5.82 -1.56 0 0 Z " fill="#E06797" transform="translate(766.5625,746.6875)"/>
<path d="M0 0 C5.73 3.93 11.05 8.21 15 14 C15 14.99 15 15.98 15 17 C8.79 14.37 2.52 8.79 -1 3 C-0.67 2.01 -0.34 1.02 0 0 Z " fill="#2C2D2D" transform="translate(431,742)"/>
<path d="M0 0 C3.39 3.88 3.38 6.53 3.24 11.52 C2.95 14.55 2.18 17.19 1 20 C-2.42 16.58 -1.92 11.39 -2.19 6.75 C-2 3.96 -1.45 2.36 0 0 Z " fill="#959595" transform="translate(584,411)"/>
<path d="M0 0 C0.66 0.33 1.32 0.66 2 1 C-7.24 10.24 -16.48 19.48 -26 29 C-26.66 28.34 -27.32 27.68 -28 27 C-27.5 25.51 -27.5 25.51 -27 24 C-26.43 23.88 -25.86 23.76 -25.28 23.63 C-21.9 22.69 -19.95 20.32 -17.58 17.87 C-17.07 17.36 -16.57 16.85 -16.05 16.33 C-14.44 14.71 -12.85 13.07 -11.25 11.44 C-10.16 10.33 -9.07 9.23 -7.98 8.13 C-5.31 5.43 -2.65 2.72 0 0 Z " fill="#D6C3BD" transform="translate(861,760)"/>
<path d="M0 0 C3 1 3 1 4.56 3.06 C7.53 9.13 8.79 15.31 8 22 C5.5 24 5.5 24 3 25 C3.16 24.47 3.32 23.94 3.48 23.39 C5.33 14.88 4.61 7.35 0 0 Z " fill="#E16094" transform="translate(796,702)"/>
<path d="M0 0 C0.99 0.33 1.98 0.66 3 1 C2.01 2.49 2.01 2.49 1 4 C0.65 8.66 1.23 11.74 3 16 C2.67 16.99 2.34 17.98 2 19 C1.67 18.01 1.34 17.02 1 16 C0.34 16 -0.32 16 -1 16 C-3 11.87 -3.42 8.57 -3 4 C-1.5 1.56 -1.5 1.56 0 0 Z " fill="#E15E93" transform="translate(783,748)"/>
<path d="M0 0 C0.66 0.66 1.32 1.32 2 2 C1.75 6.5 -0.42 9.42 -3 13 C-3.27 12.36 -3.54 11.72 -3.81 11.06 C-4.89 8.67 -4.89 8.67 -8 8 C-5.33 5.33 -2.67 2.67 0 0 Z " fill="#DBB9B8" transform="translate(732,740)"/>
<path d="M0 0 C0.99 0.66 1.98 1.32 3 2 C3 2.66 3 3.32 3 4 C2.15 4.14 1.31 4.29 0.44 4.44 C-4.42 6.64 -7.49 10.3 -10 15 C-9.79 17.24 -9.79 17.24 -9 19 C-9.99 19 -10.98 19 -12 19 C-12.75 17.38 -12.75 17.38 -13 15 C-9.86 9.29 -9.86 9.29 -6 8 C-5.32 6.68 -4.65 5.34 -4 4 C-2.71 2.63 -1.38 1.29 0 0 Z " fill="#E16091" transform="translate(714,729)"/>
<path d="M0 0 C1.98 0.99 1.98 0.99 4 2 C4 2.66 4 3.32 4 4 C4.66 4 5.32 4 6 4 C5.67 4.99 5.34 5.98 5 7 C5.88 9.66 5.88 9.66 7 12 C6.01 12.5 6.01 12.5 5 13 C3.05 11.82 3.05 11.82 1 10 C0.39 7.52 0.39 7.52 0.25 4.81 C0.19 3.91 0.14 3.01 0.08 2.08 C0.05 1.39 0.03 0.71 0 0 Z " fill="#B7AFAD" transform="translate(428,744)"/>
<path d="M0 0 C-4.62 4.88 -4.62 4.88 -8 6 C-8.33 6.99 -8.66 7.98 -9 9 C-9.99 9.33 -10.98 9.66 -12 10 C-11.7 6.52 -10.99 4.98 -8.81 2.19 C-5.54 -0.36 -4.04 -0.47 0 0 Z " fill="#4F4F4F" transform="translate(806,794)"/>
<path d="M0 0 C3.42 2.92 3.82 5.42 4.21 9.77 C4 12 4 12 1.56 15.06 C0.29 16.02 0.29 16.02 -1 17 C-0.92 16.1 -0.83 15.19 -0.75 14.26 C-0.64 13.08 -0.54 11.9 -0.44 10.69 C-0.33 9.52 -0.23 8.34 -0.12 7.14 C0.19 3.97 0.19 3.97 -1 1 C-0.67 0.67 -0.34 0.34 0 0 Z " fill="#E15E93" transform="translate(718,703)"/>
<path d="M0 0 C2.5 2.31 2.5 2.31 5 5 C5 5.99 5 6.98 5 8 C4.01 8 3.02 8 2 8 C1.67 9.32 1.34 10.64 1 12 C0.34 12 -0.32 12 -1 12 C-0.67 8.04 -0.34 4.08 0 0 Z " fill="#606060" transform="translate(426,736)"/>
<path d="M0 0 C1.88 0.12 1.88 0.12 4 1 C4.7 2.99 5.37 4.99 6 7 C6.99 7.33 7.98 7.66 9 8 C7.38 8.81 7.38 8.81 5 9 C2.75 7.53 0.98 5.84 -1 4 C-0.67 2.68 -0.34 1.36 0 0 Z " fill="#605F5F" transform="translate(461,806)"/>
<path d="M0 0 C3.63 1.53 5.99 3.72 8.75 6.5 C9.95 7.69 9.95 7.69 11.17 8.91 C13 11 13 11 13 13 C9.37 11.47 7.01 9.28 4.25 6.5 C3.45 5.71 2.65 4.91 1.83 4.09 C0 2 0 2 0 0 Z " fill="#D8C5BF" transform="translate(417,489)"/>
<path d="M0 0 C0 3.72 -0.96 4.58 -3.25 7.44 C-3.85 8.2 -4.46 8.96 -5.08 9.75 C-6.96 11.95 -8.93 13.98 -11 16 C-10.67 14.35 -10.34 12.7 -10 11 C-9.34 11 -8.68 11 -8 11 C-8 10.34 -8 9.68 -8 9 C-7.34 9 -6.68 9 -6 9 C-5.67 7.68 -5.34 6.36 -5 5 C-4.34 5 -3.68 5 -3 5 C-2.88 4.36 -2.75 3.72 -2.62 3.06 C-2.42 2.38 -2.21 1.7 -2 1 C-1.34 0.67 -0.68 0.34 0 0 Z " fill="#E26B9B" transform="translate(752,766)"/>
<path d="M0 0 C1.68 0.29 3.34 0.62 5 1 C5.33 2.32 5.66 3.64 6 5 C4.35 5 2.7 5 1 5 C1 7.31 1 9.62 1 12 C0.67 12 0.34 12 0 12 C-0.19 10.19 -0.38 8.38 -0.56 6.56 C-0.67 5.55 -0.77 4.54 -0.88 3.5 C-0.92 2.68 -0.96 1.85 -1 1 C-0.67 0.67 -0.34 0.34 0 0 Z " fill="#D8C5BF" transform="translate(577,759)"/>
<path d="M0 0 C1 3 1 3 -0.18 5.48 C-1.02 6.82 -1.02 6.82 -1.88 8.19 C-2.43 9.09 -2.98 9.99 -3.55 10.92 C-4.03 11.61 -4.51 12.29 -5 13 C-5.33 13 -5.66 13 -6 13 C-6.5 7.71 -5.27 5.13 -2 1 C-1.34 0.67 -0.68 0.34 0 0 Z " fill="#E16295" transform="translate(760,723)"/>
<path d="M0 0 C1.98 0.99 1.98 0.99 4 2 C3.4 4.02 2.73 6.02 2 8 C1.01 8.5 1.01 8.5 0 9 C0 6.03 0 3.06 0 0 Z M-5 12 C-4.34 12 -3.68 12 -3 12 C-2.67 12.99 -2.34 13.98 -2 15 C-2.99 15 -3.98 15 -5 15 C-5 14.01 -5 13.02 -5 12 Z " fill="#5A5A5A" transform="translate(882,705)"/>
<path d="M0 0 C0 4.62 0 9.24 0 14 C-0.66 14 -1.32 14 -2 14 C-3.1 9.59 -3.08 5.52 -3 1 C-1 0 -1 0 0 0 Z " fill="#CFC3BF" transform="translate(661,513)"/>
<path d="M0 0 C-1.26 3.78 -2.9 4.52 -6 7 C-8.08 9.27 -10.05 11.62 -12 14 C-12.66 13.34 -13.32 12.68 -14 12 C-12.05 9.99 -10.09 8 -8.12 6 C-7.29 5.14 -7.29 5.14 -6.44 4.27 C-2.23 0 -2.23 0 0 0 Z " fill="#363737" transform="translate(868,737)"/>
<path d="M0 0 C2.41 0.96 3.77 1.69 5.31 3.81 C6.2 6.62 5.95 8.23 5 11 C4.01 11.66 3.02 12.32 2 13 C1.94 12.4 1.88 11.79 1.82 11.17 C1.69 9.97 1.69 9.97 1.56 8.75 C1.48 7.96 1.4 7.17 1.32 6.36 C1.02 4.18 0.58 2.12 0 0 Z " fill="#E16295" transform="translate(664,689)"/>
<path d="M0 0 C0.33 0.66 0.66 1.32 1 2 C-0.24 3.61 -1.5 5.21 -2.75 6.81 C-3.45 7.71 -4.14 8.6 -4.86 9.52 C-6.78 11.74 -8.58 13.36 -11 15 C-8.83 8.67 -4.73 4.6 0 0 Z " fill="#E36C9C" transform="translate(525,771)"/>
<path d="M0 0 C3.26 3.17 6.22 6.4 9 10 C8.67 10.66 8.34 11.32 8 12 C6.51 10.74 5.04 9.46 3.56 8.19 C2.74 7.48 1.92 6.77 1.07 6.04 C-1 4 -1 4 -2 1 C-1.34 0.67 -0.68 0.34 0 0 Z " fill="#F7F6F6" transform="translate(434,749)"/>
<path d="M0 0 C-1.41 3.22 -3.1 5.32 -5.62 7.75 C-6.57 8.67 -6.57 8.67 -7.54 9.61 C-8.02 10.07 -8.5 10.53 -9 11 C-9.99 10.67 -10.98 10.34 -12 10 C-11.38 9.75 -10.76 9.5 -10.12 9.25 C-7.57 7.75 -7.24 6.63 -6 4 C-2.44 0 -2.44 0 0 0 Z " fill="#D2C0BA" transform="translate(849,754)"/>
<path d="M0 0 C1.13 0.91 2.26 1.83 3.38 2.75 C4 3.26 4.63 3.77 5.27 4.3 C7.08 6.08 8 7.68 9 10 C3.7 8.64 1.76 5.4 -1 1 C-0.67 0.67 -0.34 0.34 0 0 Z " fill="#D6C3BD" transform="translate(573,323)"/>
<path d="M0 0 C-0.33 1.32 -0.66 2.64 -1 4 C-3.38 4.19 -3.38 4.19 -6 4 C-6.66 3.01 -7.32 2.02 -8 1 C-3.38 -1.12 -3.38 -1.12 0 0 Z " fill="#767575" transform="translate(796,831)"/>
<path d="M0 0 C3.95 0.56 6.71 1.74 10 4 C10 4.33 10 4.66 10 5 C3.52 5.37 3.52 5.37 1.06 3.62 C0 2 0 2 0 0 Z " fill="#626262" transform="translate(494,829)"/>
<path d="M0 0 C0.66 0.99 1.32 1.98 2 3 C0 5 -2 7 -4 9 C-5.32 7.68 -6.64 6.36 -8 5 C-7.24 4.73 -6.47 4.46 -5.69 4.19 C-3.13 3.06 -1.8 2.09 0 0 Z " fill="#484848" transform="translate(829,807)"/>
<path d="M0 0 C0.33 0 0.66 0 1 0 C1.38 2.69 1.38 2.69 1 6 C-0.82 8.06 -2.73 9.39 -5 11 C-4.25 6.48 -3.28 3.28 0 0 Z " fill="#484848" transform="translate(890,744)"/>
<path d="M0 0 C0 3 0 3 -1.97 5.26 C-2.8 6.06 -3.64 6.86 -4.5 7.69 C-5.34 8.5 -6.17 9.3 -7.03 10.14 C-7.68 10.75 -8.33 11.37 -9 12 C-9.66 11.67 -10.32 11.34 -11 11 C-11 10.01 -11 9.02 -11 8 C-10.42 7.91 -9.83 7.82 -9.23 7.72 C-6.47 6.83 -5.24 5.54 -3.25 3.44 C-2.64 2.8 -2.02 2.16 -1.39 1.5 C-0.93 1 -0.47 0.51 0 0 Z " fill="#3A3B3B" transform="translate(823,780)"/>
<path d="M0 0 C0.33 0 0.66 0 1 0 C1.33 3.63 1.66 7.26 2 11 C1.01 11.5 1.01 11.5 0 12 C-1.19 9.62 -1.13 8.09 -1.12 5.44 C-1.13 4.23 -1.13 4.23 -1.13 3 C-1 1 -1 1 0 0 Z " fill="#737272" transform="translate(427,760)"/>
<path d="M0 0 C0.66 0 1.32 0 2 0 C2.66 2.97 3.32 5.94 4 9 C3.01 9 2.02 9 1 9 C-0.81 6.75 -0.81 6.75 -2 4 C-1.19 1.69 -1.19 1.69 0 0 Z " fill="#E15E93" transform="translate(599,751)"/>
<path d="M0 0 C0.66 0 1.32 0 2 0 C1.45 3.83 -0.23 5.4 -3 8 C-3.99 9.49 -3.99 9.49 -5 11 C-5.66 10.67 -6.32 10.34 -7 10 C-6.21 8.71 -5.42 7.42 -4.62 6.12 C-4.18 5.41 -3.74 4.69 -3.29 3.95 C-2 2 -2 2 0 0 Z " fill="#E2699A" transform="translate(796,736)"/>
<path d="M0 0 C1.56 1.56 1.56 1.56 3 4 C2.69 7.75 2.69 7.75 2 11 C0.68 10.01 -0.64 9.02 -2 8 C-1.12 2.25 -1.12 2.25 0 0 Z " fill="#CDBDB8" transform="translate(584,411)"/>
<path d="M0 0 C0.99 0.66 1.98 1.32 3 2 C2.69 3.94 2.69 3.94 2 6 C1.01 6.33 0.02 6.66 -1 7 C-1 6.34 -1 5.68 -1 5 C-1.66 5 -2.32 5 -3 5 C-3 4.01 -3 3.02 -3 2 C-2.01 1.34 -1.02 0.68 0 0 Z " fill="#D8BEB8" transform="translate(767,747)"/>
<path d="M0 0 C1.32 0 2.64 0 4 0 C4 1.65 4 3.3 4 5 C2.68 5 1.36 5 0 5 C-0.66 4.01 -1.32 3.02 -2 2 C-1.34 1.34 -0.68 0.68 0 0 Z " fill="#3A3B3B" transform="translate(919,688)"/>
<path d="M0 0 C0.52 0.31 1.03 0.62 1.56 0.94 C4.67 2.29 7.65 2.61 11 3 C11 3.66 11 4.32 11 5 C8.03 5 5.06 5 2 5 C1.34 3.35 0.68 1.7 0 0 Z " fill="#282828" transform="translate(859,515)"/>
</svg>
